<?xml version="1.0" encoding="UTF-8" standalone="no"?><!DOCTYPE svg PUBLIC "-//W3C//DTD SVG 1.1//EN" "http://www.w3.org/Graphics/SVG/1.1/DTD/svg11.dtd"><svg width="100%" height="100%" viewBox="0 0 1000 376" version="1.1" xmlns="http://www.w3.org/2000/svg" xmlns:xlink="http://www.w3.org/1999/xlink" xml:space="preserve" xmlns:serif="http://www.serif.com/" style="fill-rule:evenodd;clip-rule:evenodd;stroke-linecap:round;stroke-linejoin:round;stroke-miterlimit:1.5;"><rect id="Artboard4" x="0" y="0" width="1000" height="375.376" style="fill:none;"/><g><path d="M304.301,116.155c0,-2.43 -1.974,-4.404 -4.404,-4.404l-195.15,0c-2.431,0 -4.404,1.974 -4.404,4.404l0,35.72c0,2.43 1.973,4.404 4.404,4.404l195.15,0c2.43,0 4.404,-1.974 4.404,-4.404l0,-35.72Z" style="fill:none;stroke:#008cff;stroke-opacity:0.8;stroke-width:2.46px;"/><path d="M304.301,184.565c0,-2.431 -1.974,-4.404 -4.404,-4.404l-195.15,0c-2.431,0 -4.404,1.973 -4.404,4.404l0,35.72c0,2.43 1.973,4.404 4.404,4.404l195.15,0c2.43,0 4.404,-1.974 4.404,-4.404l0,-35.72Z" style="fill:none;stroke:#008cff;stroke-opacity:0.8;stroke-width:2.46px;"/><path d="M304.301,252.975c0,-2.431 -1.974,-4.404 -4.404,-4.404l-195.15,0c-2.431,0 -4.404,1.973 -4.404,4.404l0,35.72c0,2.43 1.973,4.403 4.404,4.403l195.15,0c2.43,0 4.404,-1.973 4.404,-4.403l0,-35.72Z" style="fill:none;stroke:#008cff;stroke-opacity:0.8;stroke-width:2.46px;"/><rect x="108.532" y="123.666" width="20.697" height="20.697" style="fill:#00ff87;fill-opacity:0.360784;stroke:#00ffa4;stroke-opacity:0.564706;stroke-width:2.46px;"/><rect x="108.532" y="260.486" width="20.697" height="20.697" style="fill:none;stroke:#00ffa4;stroke-opacity:0.564706;stroke-width:2.46px;"/><rect x="108.532" y="192.076" width="20.697" height="20.697" style="fill:#00ff87;fill-opacity:0.360784;stroke:#00ffa4;stroke-opacity:0.564706;stroke-width:2.46px;"/></g><g><circle cx="383.819" cy="134.639" r="21.883" style="fill:none;stroke:#008cff;stroke-opacity:0.8;stroke-width:2.46px;"/><path d="M543.215,123.698c0,-6.039 -4.902,-10.942 -10.941,-10.942l-101.339,0c-6.039,0 -10.942,4.903 -10.942,10.942l0,21.883c0,6.039 4.903,10.942 10.942,10.942l101.339,0c6.039,0 10.941,-4.903 10.941,-10.942l0,-21.883Z" style="fill:#14a8d9;fill-opacity:0.356863;stroke:#008cff;stroke-opacity:0.8;stroke-width:2.46px;"/><circle cx="383.819" cy="272.22" r="21.883" style="fill:none;stroke:#008cff;stroke-opacity:0.8;stroke-width:2.46px;"/><path d="M512.271,261.278c0,-6.039 -4.903,-10.941 -10.942,-10.941l-70.394,0c-6.039,0 -10.942,4.902 -10.942,10.941l0,21.884c0,6.038 4.903,10.941 10.942,10.941l70.394,0c6.039,0 10.942,-4.903 10.942,-10.941l0,-21.884Z" style="fill:none;stroke:#008cff;stroke-opacity:0.8;stroke-width:2.46px;"/><circle cx="641.001" cy="200.862" r="21.883" style="fill:none;stroke:#008cff;stroke-opacity:0.8;stroke-width:2.46px;"/><path d="M419.993,211.803c0,6.039 4.903,10.942 10.942,10.942l162.95,0c6.039,0 10.941,-4.903 10.941,-10.942l0,-21.883c0,-6.039 -4.902,-10.942 -10.941,-10.942l-162.95,0c-6.039,0 -10.942,4.903 -10.942,10.942l0,21.883Z" style="fill:#14a8d9;fill-opacity:0.356863;stroke:#008cff;stroke-opacity:0.8;stroke-width:2.46px;"/><circle cx="445.541" cy="272.22" r="4.59" style="fill:#0071b7;fill-opacity:0.505882;stroke:#008cff;stroke-opacity:0.8;stroke-width:2.46px;"/><circle cx="466.383" cy="272.22" r="4.59" style="fill:#0071b7;fill-opacity:0.505882;stroke:#008cff;stroke-opacity:0.8;stroke-width:2.46px;"/><circle cx="486.723" cy="272.22" r="4.59" style="fill:#0071b7;fill-opacity:0.505882;stroke:#008cff;stroke-opacity:0.8;stroke-width:2.46px;"/></g><g><path d="M859.677,155.512l-54.675,0c-10.059,0 -18.225,8.166 -18.225,18.225l0,50.15c0,10.059 8.166,18.225 18.225,18.225l36.45,0c10.059,0 18.225,-8.166 18.225,-18.225l0,-68.375Z" style="fill:#00a4da;fill-opacity:0.545098;stroke:#008cff;stroke-opacity:0.8;stroke-width:2.46px;"/><circle cx="744.766" cy="144.595" r="10.917" style="fill:none;stroke:#008cff;stroke-opacity:0.8;stroke-width:2.46px;"/><circle cx="775.859" cy="282.181" r="10.917" style="fill:none;stroke:#008cff;stroke-opacity:0.8;stroke-width:2.46px;"/><circle cx="885.852" cy="257.522" r="6.425" style="fill:none;stroke:#008cff;stroke-opacity:0.8;stroke-width:2.46px;"/><ellipse cx="801.288" cy="115.589" rx="7.324" ry="7.067" style="fill:none;stroke:#008cff;stroke-opacity:0.8;stroke-width:2.46px;"/><path d="M801.288,181.582l43.821,0" style="fill:none;stroke:#008cff;stroke-opacity:0.8;stroke-width:2.46px;"/><path d="M801.288,198.812l43.821,0" style="fill:none;stroke:#008cff;stroke-opacity:0.8;stroke-width:2.46px;"/><path d="M801.288,214.71l43.821,0" style="fill:none;stroke:#008cff;stroke-opacity:0.8;stroke-width:2.46px;"/><path d="M801.288,229.495l21.939,0" style="fill:none;stroke:#008cff;stroke-opacity:0.8;stroke-width:2.46px;"/><path d="M755.684,151.911l31.093,15.14" style="fill:none;stroke:#008cff;stroke-opacity:0.8;stroke-width:2.46px;"/><path d="M804.801,122.472l12.827,33.04" style="fill:none;stroke:#008cff;stroke-opacity:0.8;stroke-width:2.46px;"/><path d="M796.179,242.112l-14.089,29.87" style="fill:none;stroke:#008cff;stroke-opacity:0.8;stroke-width:2.46px;"/><path d="M856.109,236.024l23.762,17.663" style="fill:none;stroke:#008cff;stroke-opacity:0.8;stroke-width:2.46px;"/><path d="M887.597,164.068c1.704,-3.109 5.613,-4.251 8.722,-2.546c3.11,1.704 4.251,5.612 2.547,8.722c-1.704,3.11 -5.612,4.251 -8.722,2.547c-3.11,-1.705 -4.251,-5.613 -2.547,-8.723Z" style="fill:none;stroke:#008cff;stroke-opacity:0.8;stroke-width:2.46px;"/><path d="M860.086,182.907l26.909,-12.349" style="fill:none;stroke:#008cff;stroke-opacity:0.8;stroke-width:2.46px;"/></g><g><path d="M123.05,82.911c1.536,0 2.724,0.321 3.564,0.963c0.84,0.642 1.26,1.599 1.26,2.871c0,1.356 -0.438,2.364 -1.314,3.024c-0.876,0.66 -2.04,0.99 -3.492,0.99l-1.566,0l0,4.554l-1.71,0l0,-12.402l3.258,0Zm-0.054,6.498c0.996,0 1.755,-0.192 2.277,-0.576c0.522,-0.384 0.783,-1.074 0.783,-2.07c0,-0.888 -0.261,-1.53 -0.783,-1.926c-0.522,-0.396 -1.269,-0.594 -2.241,-0.594l-1.53,0l0,5.166l1.494,0Z" style="fill:#0e5095;fill-rule:nonzero;"/><path d="M133.922,85.611c0.336,0 0.648,0.036 0.936,0.108l-0.306,1.62c-0.288,-0.072 -0.564,-0.108 -0.828,-0.108c-0.588,0 -1.062,0.216 -1.422,0.648c-0.36,0.432 -0.642,1.104 -0.846,2.016l0,5.418l-1.656,0l0,-9.486l1.422,0l0.162,1.926c0.252,-0.708 0.594,-1.242 1.026,-1.602c0.432,-0.36 0.936,-0.54 1.512,-0.54Z" style="fill:#0e5095;fill-rule:nonzero;"/><path d="M139.772,85.611c1.332,0 2.367,0.444 3.105,1.332c0.738,0.888 1.107,2.094 1.107,3.618c0,0.984 -0.168,1.851 -0.504,2.601c-0.336,0.75 -0.822,1.332 -1.458,1.746c-0.636,0.414 -1.392,0.621 -2.268,0.621c-1.332,0 -2.37,-0.444 -3.114,-1.332c-0.744,-0.888 -1.116,-2.094 -1.116,-3.618c0,-0.984 0.168,-1.851 0.504,-2.601c0.336,-0.75 0.822,-1.332 1.458,-1.746c0.636,-0.414 1.398,-0.621 2.286,-0.621Zm0,1.332c-1.644,0 -2.466,1.212 -2.466,3.636c0,2.412 0.816,3.618 2.448,3.618c1.632,0 2.448,-1.212 2.448,-3.636c0,-2.412 -0.81,-3.618 -2.43,-3.618Z" style="fill:#0e5095;fill-rule:nonzero;"/><path d="M148.34,94.737c0,0.876 -0.108,1.578 -0.324,2.106c-0.216,0.528 -0.531,0.957 -0.945,1.287c-0.414,0.33 -0.993,0.663 -1.737,0.999l-0.486,-1.206c0.468,-0.216 0.828,-0.429 1.08,-0.639c0.252,-0.21 0.441,-0.504 0.567,-0.882c0.126,-0.378 0.189,-0.897 0.189,-1.557l0,-9.018l1.656,0l0,8.91Zm-0.828,-13.464c0.348,0 0.63,0.108 0.846,0.324c0.216,0.216 0.324,0.486 0.324,0.81c0,0.324 -0.108,0.591 -0.324,0.801c-0.216,0.21 -0.498,0.315 -0.846,0.315c-0.336,0 -0.612,-0.105 -0.828,-0.315c-0.216,-0.21 -0.324,-0.477 -0.324,-0.801c0,-0.324 0.108,-0.594 0.324,-0.81c0.216,-0.216 0.492,-0.324 0.828,-0.324Z" style="fill:#0e5095;fill-rule:nonzero;"/><path d="M158.924,90.291c0,0.276 -0.012,0.558 -0.036,0.846l-6.048,0c0.072,1.044 0.336,1.812 0.792,2.304c0.456,0.492 1.044,0.738 1.764,0.738c0.456,0 0.876,-0.066 1.26,-0.198c0.384,-0.132 0.786,-0.342 1.206,-0.63l0.72,0.99c-1.008,0.792 -2.112,1.188 -3.312,1.188c-1.32,0 -2.349,-0.432 -3.087,-1.296c-0.738,-0.864 -1.107,-2.052 -1.107,-3.564c0,-0.984 0.159,-1.857 0.477,-2.619c0.318,-0.762 0.774,-1.359 1.368,-1.791c0.594,-0.432 1.293,-0.648 2.097,-0.648c1.26,0 2.226,0.414 2.898,1.242c0.672,0.828 1.008,1.974 1.008,3.438Zm-1.638,-0.486c0,-0.936 -0.186,-1.65 -0.558,-2.142c-0.372,-0.492 -0.93,-0.738 -1.674,-0.738c-1.356,0 -2.094,0.996 -2.214,2.988l4.446,0l0,-0.108Z" style="fill:#0e5095;fill-rule:nonzero;"/><path d="M165.026,85.611c0.564,0 1.08,0.081 1.548,0.243c0.468,0.162 0.918,0.423 1.35,0.783l-0.792,1.044c-0.336,-0.24 -0.663,-0.417 -0.981,-0.531c-0.318,-0.114 -0.669,-0.171 -1.053,-0.171c-0.768,0 -1.365,0.306 -1.791,0.918c-0.426,0.612 -0.639,1.518 -0.639,2.718c0,1.2 0.21,2.085 0.63,2.655c0.42,0.57 1.02,0.855 1.8,0.855c0.372,0 0.714,-0.057 1.026,-0.171c0.312,-0.114 0.66,-0.297 1.044,-0.549l0.756,1.08c-0.864,0.696 -1.83,1.044 -2.898,1.044c-1.284,0 -2.295,-0.432 -3.033,-1.296c-0.738,-0.864 -1.107,-2.058 -1.107,-3.582c0,-1.008 0.168,-1.89 0.504,-2.646c0.336,-0.756 0.813,-1.344 1.431,-1.764c0.618,-0.42 1.353,-0.63 2.205,-0.63Z" style="fill:#0e5095;fill-rule:nonzero;"/><path d="M174.962,94.881c-0.624,0.432 -1.332,0.648 -2.124,0.648c-0.804,0 -1.431,-0.231 -1.881,-0.693c-0.45,-0.462 -0.675,-1.131 -0.675,-2.007l0,-5.724l-1.656,0l0,-1.278l1.656,0l0,-2.142l1.656,-0.198l0,2.34l2.25,0l-0.18,1.278l-2.07,0l0,5.652c0,0.492 0.087,0.849 0.261,1.071c0.174,0.222 0.465,0.333 0.873,0.333c0.372,0 0.792,-0.126 1.26,-0.378l0.63,1.098Z" style="fill:#0e5095;fill-rule:nonzero;"/><path d="M192.62,95.313l-1.656,0l-0.432,-5.598c-0.18,-2.196 -0.282,-3.882 -0.306,-5.058l-2.682,9.252l-1.602,0l-2.826,-9.27c0,1.5 -0.078,3.234 -0.234,5.202l-0.414,5.472l-1.62,0l1.026,-12.402l2.304,0l2.61,9.018l2.484,-9.018l2.322,0l1.026,12.402Z" style="fill:#0e5095;fill-rule:nonzero;"/><path d="M201.836,93.099c0,0.384 0.066,0.669 0.198,0.855c0.132,0.186 0.33,0.327 0.594,0.423l-0.378,1.152c-0.492,-0.06 -0.888,-0.198 -1.188,-0.414c-0.3,-0.216 -0.522,-0.552 -0.666,-1.008c-0.636,0.948 -1.578,1.422 -2.826,1.422c-0.936,0 -1.674,-0.264 -2.214,-0.792c-0.54,-0.528 -0.81,-1.218 -0.81,-2.07c0,-1.008 0.363,-1.782 1.089,-2.322c0.726,-0.54 1.755,-0.81 3.087,-0.81l1.458,0l0,-0.702c0,-0.672 -0.162,-1.152 -0.486,-1.44c-0.324,-0.288 -0.822,-0.432 -1.494,-0.432c-0.696,0 -1.548,0.168 -2.556,0.504l-0.414,-1.206c1.176,-0.432 2.268,-0.648 3.276,-0.648c1.116,0 1.95,0.273 2.502,0.819c0.552,0.546 0.828,1.323 0.828,2.331l0,4.338Zm-3.888,1.188c0.948,0 1.692,-0.492 2.232,-1.476l0,-2.178l-1.242,0c-1.752,0 -2.628,0.648 -2.628,1.944c0,0.564 0.138,0.99 0.414,1.278c0.276,0.288 0.684,0.432 1.224,0.432Z" style="fill:#0e5095;fill-rule:nonzero;"/><path d="M209.702,85.611c0.864,0 1.539,0.258 2.025,0.774c0.486,0.516 0.729,1.224 0.729,2.124l0,6.804l-1.656,0l0,-6.57c0,-0.672 -0.126,-1.146 -0.378,-1.422c-0.252,-0.276 -0.624,-0.414 -1.116,-0.414c-0.504,0 -0.948,0.144 -1.332,0.432c-0.384,0.288 -0.744,0.702 -1.08,1.242l0,6.732l-1.656,0l0,-9.486l1.422,0l0.144,1.404c0.336,-0.504 0.753,-0.9 1.251,-1.188c0.498,-0.288 1.047,-0.432 1.647,-0.432Z" style="fill:#0e5095;fill-rule:nonzero;"/><path d="M222.176,93.099c0,0.384 0.066,0.669 0.198,0.855c0.132,0.186 0.33,0.327 0.594,0.423l-0.378,1.152c-0.492,-0.06 -0.888,-0.198 -1.188,-0.414c-0.3,-0.216 -0.522,-0.552 -0.666,-1.008c-0.636,0.948 -1.578,1.422 -2.826,1.422c-0.936,0 -1.674,-0.264 -2.214,-0.792c-0.54,-0.528 -0.81,-1.218 -0.81,-2.07c0,-1.008 0.363,-1.782 1.089,-2.322c0.726,-0.54 1.755,-0.81 3.087,-0.81l1.458,0l0,-0.702c0,-0.672 -0.162,-1.152 -0.486,-1.44c-0.324,-0.288 -0.822,-0.432 -1.494,-0.432c-0.696,0 -1.548,0.168 -2.556,0.504l-0.414,-1.206c1.176,-0.432 2.268,-0.648 3.276,-0.648c1.116,0 1.95,0.273 2.502,0.819c0.552,0.546 0.828,1.323 0.828,2.331l0,4.338Zm-3.888,1.188c0.948,0 1.692,-0.492 2.232,-1.476l0,-2.178l-1.242,0c-1.752,0 -2.628,0.648 -2.628,1.944c0,0.564 0.138,0.99 0.414,1.278c0.276,0.288 0.684,0.432 1.224,0.432Z" style="fill:#0e5095;fill-rule:nonzero;"/><path d="M233.048,86.259c-0.36,0.12 -0.756,0.198 -1.188,0.234c-0.432,0.036 -0.96,0.054 -1.584,0.054c1.116,0.504 1.674,1.302 1.674,2.394c0,0.948 -0.324,1.722 -0.972,2.322c-0.648,0.6 -1.53,0.9 -2.646,0.9c-0.432,0 -0.834,-0.06 -1.206,-0.18c-0.144,0.096 -0.258,0.225 -0.342,0.387c-0.084,0.162 -0.126,0.327 -0.126,0.495c0,0.516 0.414,0.774 1.242,0.774l1.512,0c0.636,0 1.2,0.114 1.692,0.342c0.492,0.228 0.873,0.54 1.143,0.936c0.27,0.396 0.405,0.846 0.405,1.35c0,0.924 -0.378,1.635 -1.134,2.133c-0.756,0.498 -1.86,0.747 -3.312,0.747c-1.02,0 -1.827,-0.105 -2.421,-0.315c-0.594,-0.21 -1.017,-0.525 -1.269,-0.945c-0.252,-0.42 -0.378,-0.96 -0.378,-1.62l1.494,0c0,0.384 0.072,0.687 0.216,0.909c0.144,0.222 0.402,0.39 0.774,0.504c0.372,0.114 0.9,0.171 1.584,0.171c0.996,0 1.707,-0.123 2.133,-0.369c0.426,-0.246 0.639,-0.615 0.639,-1.107c0,-0.444 -0.168,-0.78 -0.504,-1.008c-0.336,-0.228 -0.804,-0.342 -1.404,-0.342l-1.494,0c-0.804,0 -1.413,-0.171 -1.827,-0.513c-0.414,-0.342 -0.621,-0.771 -0.621,-1.287c0,-0.312 0.09,-0.612 0.27,-0.9c0.18,-0.288 0.438,-0.546 0.774,-0.774c-0.552,-0.288 -0.957,-0.645 -1.215,-1.071c-0.258,-0.426 -0.387,-0.945 -0.387,-1.557c0,-0.636 0.159,-1.206 0.477,-1.71c0.318,-0.504 0.756,-0.897 1.314,-1.179c0.558,-0.282 1.179,-0.423 1.863,-0.423c0.744,0.012 1.368,-0.015 1.872,-0.081c0.504,-0.066 0.921,-0.156 1.251,-0.27c0.33,-0.114 0.735,-0.279 1.215,-0.495l0.486,1.494Zm-4.824,0.54c-0.624,0 -1.107,0.195 -1.449,0.585c-0.342,0.39 -0.513,0.903 -0.513,1.539c0,0.648 0.174,1.167 0.522,1.557c0.348,0.39 0.84,0.585 1.476,0.585c0.648,0 1.143,-0.189 1.485,-0.567c0.342,-0.378 0.513,-0.909 0.513,-1.593c0,-1.404 -0.678,-2.106 -2.034,-2.106Z" style="fill:#0e5095;fill-rule:nonzero;"/><path d="M241.634,90.291c0,0.276 -0.012,0.558 -0.036,0.846l-6.048,0c0.072,1.044 0.336,1.812 0.792,2.304c0.456,0.492 1.044,0.738 1.764,0.738c0.456,0 0.876,-0.066 1.26,-0.198c0.384,-0.132 0.786,-0.342 1.206,-0.63l0.72,0.99c-1.008,0.792 -2.112,1.188 -3.312,1.188c-1.32,0 -2.349,-0.432 -3.087,-1.296c-0.738,-0.864 -1.107,-2.052 -1.107,-3.564c0,-0.984 0.159,-1.857 0.477,-2.619c0.318,-0.762 0.774,-1.359 1.368,-1.791c0.594,-0.432 1.293,-0.648 2.097,-0.648c1.26,0 2.226,0.414 2.898,1.242c0.672,0.828 1.008,1.974 1.008,3.438Zm-1.638,-0.486c0,-0.936 -0.186,-1.65 -0.558,-2.142c-0.372,-0.492 -0.93,-0.738 -1.674,-0.738c-1.356,0 -2.094,0.996 -2.214,2.988l4.446,0l0,-0.108Z" style="fill:#0e5095;fill-rule:nonzero;"/><path d="M253.802,85.611c0.78,0 1.404,0.261 1.872,0.783c0.468,0.522 0.702,1.227 0.702,2.115l0,6.804l-1.656,0l0,-6.57c0,-1.224 -0.444,-1.836 -1.332,-1.836c-0.468,0 -0.864,0.135 -1.188,0.405c-0.324,0.27 -0.672,0.693 -1.044,1.269l0,6.732l-1.656,0l0,-6.57c0,-1.224 -0.444,-1.836 -1.332,-1.836c-0.48,0 -0.882,0.138 -1.206,0.414c-0.324,0.276 -0.666,0.696 -1.026,1.26l0,6.732l-1.656,0l0,-9.486l1.422,0l0.144,1.386c0.708,-1.068 1.62,-1.602 2.736,-1.602c0.588,0 1.089,0.15 1.503,0.45c0.414,0.3 0.711,0.72 0.891,1.26c0.372,-0.552 0.783,-0.975 1.233,-1.269c0.45,-0.294 0.981,-0.441 1.593,-0.441Z" style="fill:#0e5095;fill-rule:nonzero;"/><path d="M266.87,90.291c0,0.276 -0.012,0.558 -0.036,0.846l-6.048,0c0.072,1.044 0.336,1.812 0.792,2.304c0.456,0.492 1.044,0.738 1.764,0.738c0.456,0 0.876,-0.066 1.26,-0.198c0.384,-0.132 0.786,-0.342 1.206,-0.63l0.72,0.99c-1.008,0.792 -2.112,1.188 -3.312,1.188c-1.32,0 -2.349,-0.432 -3.087,-1.296c-0.738,-0.864 -1.107,-2.052 -1.107,-3.564c0,-0.984 0.159,-1.857 0.477,-2.619c0.318,-0.762 0.774,-1.359 1.368,-1.791c0.594,-0.432 1.293,-0.648 2.097,-0.648c1.26,0 2.226,0.414 2.898,1.242c0.672,0.828 1.008,1.974 1.008,3.438Zm-1.638,-0.486c0,-0.936 -0.186,-1.65 -0.558,-2.142c-0.372,-0.492 -0.93,-0.738 -1.674,-0.738c-1.356,0 -2.094,0.996 -2.214,2.988l4.446,0l0,-0.108Z" style="fill:#0e5095;fill-rule:nonzero;"/><path d="M273.98,85.611c0.864,0 1.539,0.258 2.025,0.774c0.486,0.516 0.729,1.224 0.729,2.124l0,6.804l-1.656,0l0,-6.57c0,-0.672 -0.126,-1.146 -0.378,-1.422c-0.252,-0.276 -0.624,-0.414 -1.116,-0.414c-0.504,0 -0.948,0.144 -1.332,0.432c-0.384,0.288 -0.744,0.702 -1.08,1.242l0,6.732l-1.656,0l0,-9.486l1.422,0l0.144,1.404c0.336,-0.504 0.753,-0.9 1.251,-1.188c0.498,-0.288 1.047,-0.432 1.647,-0.432Z" style="fill:#0e5095;fill-rule:nonzero;"/><path d="M284.852,94.881c-0.624,0.432 -1.332,0.648 -2.124,0.648c-0.804,0 -1.431,-0.231 -1.881,-0.693c-0.45,-0.462 -0.675,-1.131 -0.675,-2.007l0,-5.724l-1.656,0l0,-1.278l1.656,0l0,-2.142l1.656,-0.198l0,2.34l2.25,0l-0.18,1.278l-2.07,0l0,5.652c0,0.492 0.087,0.849 0.261,1.071c0.174,0.222 0.465,0.333 0.873,0.333c0.372,0 0.792,-0.126 1.26,-0.378l0.63,1.098Z" style="fill:#0e5095;fill-rule:nonzero;"/></g><g><path d="M399.479,90.057l-1.926,0l0,5.256l-1.71,0l0,-12.402l3.258,0c1.548,0 2.721,0.294 3.519,0.882c0.798,0.588 1.197,1.464 1.197,2.628c0,0.864 -0.222,1.566 -0.666,2.106c-0.444,0.54 -1.116,0.948 -2.016,1.224l3.348,5.562l-2.034,0l-2.97,-5.256Zm-0.198,-1.314c0.9,0 1.578,-0.183 2.034,-0.549c0.456,-0.366 0.684,-0.957 0.684,-1.773c0,-0.768 -0.231,-1.323 -0.693,-1.665c-0.462,-0.342 -1.203,-0.513 -2.223,-0.513l-1.53,0l0,4.5l1.728,0Z" style="fill:#0e5095;fill-rule:nonzero;"/><path d="M413.537,90.291c0,0.276 -0.012,0.558 -0.036,0.846l-6.048,0c0.072,1.044 0.336,1.812 0.792,2.304c0.456,0.492 1.044,0.738 1.764,0.738c0.456,0 0.876,-0.066 1.26,-0.198c0.384,-0.132 0.786,-0.342 1.206,-0.63l0.72,0.99c-1.008,0.792 -2.112,1.188 -3.312,1.188c-1.32,0 -2.349,-0.432 -3.087,-1.296c-0.738,-0.864 -1.107,-2.052 -1.107,-3.564c0,-0.984 0.159,-1.857 0.477,-2.619c0.318,-0.762 0.774,-1.359 1.368,-1.791c0.594,-0.432 1.293,-0.648 2.097,-0.648c1.26,0 2.226,0.414 2.898,1.242c0.672,0.828 1.008,1.974 1.008,3.438Zm-1.638,-0.486c0,-0.936 -0.186,-1.65 -0.558,-2.142c-0.372,-0.492 -0.93,-0.738 -1.674,-0.738c-1.356,0 -2.094,0.996 -2.214,2.988l4.446,0l0,-0.108Z" style="fill:#0e5095;fill-rule:nonzero;"/><path d="M422.393,93.099c0,0.384 0.066,0.669 0.198,0.855c0.132,0.186 0.33,0.327 0.594,0.423l-0.378,1.152c-0.492,-0.06 -0.888,-0.198 -1.188,-0.414c-0.3,-0.216 -0.522,-0.552 -0.666,-1.008c-0.636,0.948 -1.578,1.422 -2.826,1.422c-0.936,0 -1.674,-0.264 -2.214,-0.792c-0.54,-0.528 -0.81,-1.218 -0.81,-2.07c0,-1.008 0.363,-1.782 1.089,-2.322c0.726,-0.54 1.755,-0.81 3.087,-0.81l1.458,0l0,-0.702c0,-0.672 -0.162,-1.152 -0.486,-1.44c-0.324,-0.288 -0.822,-0.432 -1.494,-0.432c-0.696,0 -1.548,0.168 -2.556,0.504l-0.414,-1.206c1.176,-0.432 2.268,-0.648 3.276,-0.648c1.116,0 1.95,0.273 2.502,0.819c0.552,0.546 0.828,1.323 0.828,2.331l0,4.338Zm-3.888,1.188c0.948,0 1.692,-0.492 2.232,-1.476l0,-2.178l-1.242,0c-1.752,0 -2.628,0.648 -2.628,1.944c0,0.564 0.138,0.99 0.414,1.278c0.276,0.288 0.684,0.432 1.224,0.432Z" style="fill:#0e5095;fill-rule:nonzero;"/><path d="M427.505,95.529c-0.612,0 -1.095,-0.183 -1.449,-0.549c-0.354,-0.366 -0.531,-0.879 -0.531,-1.539l0,-11.43l1.656,-0.198l0,11.592c0,0.264 0.045,0.456 0.135,0.576c0.09,0.12 0.243,0.18 0.459,0.18c0.228,0 0.432,-0.036 0.612,-0.108l0.432,1.152c-0.396,0.216 -0.834,0.324 -1.314,0.324Z" style="fill:#0e5095;fill-rule:nonzero;"/><rect x="430.079" y="88.977" width="5.094" height="1.404" style="fill:#0e5095;fill-rule:nonzero;"/><path d="M442.661,94.881c-0.624,0.432 -1.332,0.648 -2.124,0.648c-0.804,0 -1.431,-0.231 -1.881,-0.693c-0.45,-0.462 -0.675,-1.131 -0.675,-2.007l0,-5.724l-1.656,0l0,-1.278l1.656,0l0,-2.142l1.656,-0.198l0,2.34l2.25,0l-0.18,1.278l-2.07,0l0,5.652c0,0.492 0.087,0.849 0.261,1.071c0.174,0.222 0.465,0.333 0.873,0.333c0.372,0 0.792,-0.126 1.26,-0.378l0.63,1.098Z" style="fill:#0e5095;fill-rule:nonzero;"/><path d="M446.027,85.827l0,9.486l-1.656,0l0,-9.486l1.656,0Zm-0.846,-4.554c0.348,0 0.63,0.108 0.846,0.324c0.216,0.216 0.324,0.486 0.324,0.81c0,0.324 -0.108,0.591 -0.324,0.801c-0.216,0.21 -0.498,0.315 -0.846,0.315c-0.336,0 -0.612,-0.105 -0.828,-0.315c-0.216,-0.21 -0.324,-0.477 -0.324,-0.801c0,-0.324 0.108,-0.594 0.324,-0.81c0.216,-0.216 0.492,-0.324 0.828,-0.324Z" style="fill:#0e5095;fill-rule:nonzero;"/><path d="M458.969,85.611c0.78,0 1.404,0.261 1.872,0.783c0.468,0.522 0.702,1.227 0.702,2.115l0,6.804l-1.656,0l0,-6.57c0,-1.224 -0.444,-1.836 -1.332,-1.836c-0.468,0 -0.864,0.135 -1.188,0.405c-0.324,0.27 -0.672,0.693 -1.044,1.269l0,6.732l-1.656,0l0,-6.57c0,-1.224 -0.444,-1.836 -1.332,-1.836c-0.48,0 -0.882,0.138 -1.206,0.414c-0.324,0.276 -0.666,0.696 -1.026,1.26l0,6.732l-1.656,0l0,-9.486l1.422,0l0.144,1.386c0.708,-1.068 1.62,-1.602 2.736,-1.602c0.588,0 1.089,0.15 1.503,0.45c0.414,0.3 0.711,0.72 0.891,1.26c0.372,-0.552 0.783,-0.975 1.233,-1.269c0.45,-0.294 0.981,-0.441 1.593,-0.441Z" style="fill:#0e5095;fill-rule:nonzero;"/><path d="M472.037,90.291c0,0.276 -0.012,0.558 -0.036,0.846l-6.048,0c0.072,1.044 0.336,1.812 0.792,2.304c0.456,0.492 1.044,0.738 1.764,0.738c0.456,0 0.876,-0.066 1.26,-0.198c0.384,-0.132 0.786,-0.342 1.206,-0.63l0.72,0.99c-1.008,0.792 -2.112,1.188 -3.312,1.188c-1.32,0 -2.349,-0.432 -3.087,-1.296c-0.738,-0.864 -1.107,-2.052 -1.107,-3.564c0,-0.984 0.159,-1.857 0.477,-2.619c0.318,-0.762 0.774,-1.359 1.368,-1.791c0.594,-0.432 1.293,-0.648 2.097,-0.648c1.26,0 2.226,0.414 2.898,1.242c0.672,0.828 1.008,1.974 1.008,3.438Zm-1.638,-0.486c0,-0.936 -0.186,-1.65 -0.558,-2.142c-0.372,-0.492 -0.93,-0.738 -1.674,-0.738c-1.356,0 -2.094,0.996 -2.214,2.988l4.446,0l0,-0.108Z" style="fill:#0e5095;fill-rule:nonzero;"/><path d="M483.881,82.695c0.744,0 1.371,0.096 1.881,0.288c0.51,0.192 1.029,0.504 1.557,0.936l-0.936,1.098c-0.756,-0.612 -1.554,-0.918 -2.394,-0.918c-1.032,0 -1.863,0.396 -2.493,1.188c-0.63,0.792 -0.945,2.064 -0.945,3.816c0,1.704 0.312,2.961 0.936,3.771c0.624,0.81 1.452,1.215 2.484,1.215c0.528,0 0.99,-0.09 1.386,-0.27c0.396,-0.18 0.816,-0.432 1.26,-0.756l0.846,1.08c-0.384,0.396 -0.876,0.726 -1.476,0.99c-0.6,0.264 -1.29,0.396 -2.07,0.396c-1.008,0 -1.905,-0.249 -2.691,-0.747c-0.786,-0.498 -1.398,-1.23 -1.836,-2.196c-0.438,-0.966 -0.657,-2.127 -0.657,-3.483c0,-1.356 0.228,-2.517 0.684,-3.483c0.456,-0.966 1.074,-1.695 1.854,-2.187c0.78,-0.492 1.65,-0.738 2.61,-0.738Z" style="fill:#0e5095;fill-rule:nonzero;"/><path d="M492.737,85.611c1.332,0 2.367,0.444 3.105,1.332c0.738,0.888 1.107,2.094 1.107,3.618c0,0.984 -0.168,1.851 -0.504,2.601c-0.336,0.75 -0.822,1.332 -1.458,1.746c-0.636,0.414 -1.392,0.621 -2.268,0.621c-1.332,0 -2.37,-0.444 -3.114,-1.332c-0.744,-0.888 -1.116,-2.094 -1.116,-3.618c0,-0.984 0.168,-1.851 0.504,-2.601c0.336,-0.75 0.822,-1.332 1.458,-1.746c0.636,-0.414 1.398,-0.621 2.286,-0.621Zm0,1.332c-1.644,0 -2.466,1.212 -2.466,3.636c0,2.412 0.816,3.618 2.448,3.618c1.632,0 2.448,-1.212 2.448,-3.636c0,-2.412 -0.81,-3.618 -2.43,-3.618Z" style="fill:#0e5095;fill-rule:nonzero;"/><path d="M509.207,85.611c0.78,0 1.404,0.261 1.872,0.783c0.468,0.522 0.702,1.227 0.702,2.115l0,6.804l-1.656,0l0,-6.57c0,-1.224 -0.444,-1.836 -1.332,-1.836c-0.468,0 -0.864,0.135 -1.188,0.405c-0.324,0.27 -0.672,0.693 -1.044,1.269l0,6.732l-1.656,0l0,-6.57c0,-1.224 -0.444,-1.836 -1.332,-1.836c-0.48,0 -0.882,0.138 -1.206,0.414c-0.324,0.276 -0.666,0.696 -1.026,1.26l0,6.732l-1.656,0l0,-9.486l1.422,0l0.144,1.386c0.708,-1.068 1.62,-1.602 2.736,-1.602c0.588,0 1.089,0.15 1.503,0.45c0.414,0.3 0.711,0.72 0.891,1.26c0.372,-0.552 0.783,-0.975 1.233,-1.269c0.45,-0.294 0.981,-0.441 1.593,-0.441Z" style="fill:#0e5095;fill-rule:nonzero;"/><path d="M524.633,85.611c0.78,0 1.404,0.261 1.872,0.783c0.468,0.522 0.702,1.227 0.702,2.115l0,6.804l-1.656,0l0,-6.57c0,-1.224 -0.444,-1.836 -1.332,-1.836c-0.468,0 -0.864,0.135 -1.188,0.405c-0.324,0.27 -0.672,0.693 -1.044,1.269l0,6.732l-1.656,0l0,-6.57c0,-1.224 -0.444,-1.836 -1.332,-1.836c-0.48,0 -0.882,0.138 -1.206,0.414c-0.324,0.276 -0.666,0.696 -1.026,1.26l0,6.732l-1.656,0l0,-9.486l1.422,0l0.144,1.386c0.708,-1.068 1.62,-1.602 2.736,-1.602c0.588,0 1.089,0.15 1.503,0.45c0.414,0.3 0.711,0.72 0.891,1.26c0.372,-0.552 0.783,-0.975 1.233,-1.269c0.45,-0.294 0.981,-0.441 1.593,-0.441Z" style="fill:#0e5095;fill-rule:nonzero;"/><path d="M537.593,95.313l-1.422,0l-0.126,-1.476c-0.36,0.588 -0.774,1.017 -1.242,1.287c-0.468,0.27 -1.038,0.405 -1.71,0.405c-0.828,0 -1.476,-0.252 -1.944,-0.756c-0.468,-0.504 -0.702,-1.218 -0.702,-2.142l0,-6.804l1.656,0l0,6.624c0,0.648 0.114,1.107 0.342,1.377c0.228,0.27 0.6,0.405 1.116,0.405c0.924,0 1.716,-0.546 2.376,-1.638l0,-6.768l1.656,0l0,9.486Z" style="fill:#0e5095;fill-rule:nonzero;"/><path d="M545.477,85.611c0.864,0 1.539,0.258 2.025,0.774c0.486,0.516 0.729,1.224 0.729,2.124l0,6.804l-1.656,0l0,-6.57c0,-0.672 -0.126,-1.146 -0.378,-1.422c-0.252,-0.276 -0.624,-0.414 -1.116,-0.414c-0.504,0 -0.948,0.144 -1.332,0.432c-0.384,0.288 -0.744,0.702 -1.08,1.242l0,6.732l-1.656,0l0,-9.486l1.422,0l0.144,1.404c0.336,-0.504 0.753,-0.9 1.251,-1.188c0.498,-0.288 1.047,-0.432 1.647,-0.432Z" style="fill:#0e5095;fill-rule:nonzero;"/><path d="M553.217,85.827l0,9.486l-1.656,0l0,-9.486l1.656,0Zm-0.846,-4.554c0.348,0 0.63,0.108 0.846,0.324c0.216,0.216 0.324,0.486 0.324,0.81c0,0.324 -0.108,0.591 -0.324,0.801c-0.216,0.21 -0.498,0.315 -0.846,0.315c-0.336,0 -0.612,-0.105 -0.828,-0.315c-0.216,-0.21 -0.324,-0.477 -0.324,-0.801c0,-0.324 0.108,-0.594 0.324,-0.81c0.216,-0.216 0.492,-0.324 0.828,-0.324Z" style="fill:#0e5095;fill-rule:nonzero;"/><path d="M560.093,85.611c0.564,0 1.08,0.081 1.548,0.243c0.468,0.162 0.918,0.423 1.35,0.783l-0.792,1.044c-0.336,-0.24 -0.663,-0.417 -0.981,-0.531c-0.318,-0.114 -0.669,-0.171 -1.053,-0.171c-0.768,0 -1.365,0.306 -1.791,0.918c-0.426,0.612 -0.639,1.518 -0.639,2.718c0,1.2 0.21,2.085 0.63,2.655c0.42,0.57 1.02,0.855 1.8,0.855c0.372,0 0.714,-0.057 1.026,-0.171c0.312,-0.114 0.66,-0.297 1.044,-0.549l0.756,1.08c-0.864,0.696 -1.83,1.044 -2.898,1.044c-1.284,0 -2.295,-0.432 -3.033,-1.296c-0.738,-0.864 -1.107,-2.058 -1.107,-3.582c0,-1.008 0.168,-1.89 0.504,-2.646c0.336,-0.756 0.813,-1.344 1.431,-1.764c0.618,-0.42 1.353,-0.63 2.205,-0.63Z" style="fill:#0e5095;fill-rule:nonzero;"/><path d="M571.451,93.099c0,0.384 0.066,0.669 0.198,0.855c0.132,0.186 0.33,0.327 0.594,0.423l-0.378,1.152c-0.492,-0.06 -0.888,-0.198 -1.188,-0.414c-0.3,-0.216 -0.522,-0.552 -0.666,-1.008c-0.636,0.948 -1.578,1.422 -2.826,1.422c-0.936,0 -1.674,-0.264 -2.214,-0.792c-0.54,-0.528 -0.81,-1.218 -0.81,-2.07c0,-1.008 0.363,-1.782 1.089,-2.322c0.726,-0.54 1.755,-0.81 3.087,-0.81l1.458,0l0,-0.702c0,-0.672 -0.162,-1.152 -0.486,-1.44c-0.324,-0.288 -0.822,-0.432 -1.494,-0.432c-0.696,0 -1.548,0.168 -2.556,0.504l-0.414,-1.206c1.176,-0.432 2.268,-0.648 3.276,-0.648c1.116,0 1.95,0.273 2.502,0.819c0.552,0.546 0.828,1.323 0.828,2.331l0,4.338Zm-3.888,1.188c0.948,0 1.692,-0.492 2.232,-1.476l0,-2.178l-1.242,0c-1.752,0 -2.628,0.648 -2.628,1.944c0,0.564 0.138,0.99 0.414,1.278c0.276,0.288 0.684,0.432 1.224,0.432Z" style="fill:#0e5095;fill-rule:nonzero;"/><path d="M579.641,94.881c-0.624,0.432 -1.332,0.648 -2.124,0.648c-0.804,0 -1.431,-0.231 -1.881,-0.693c-0.45,-0.462 -0.675,-1.131 -0.675,-2.007l0,-5.724l-1.656,0l0,-1.278l1.656,0l0,-2.142l1.656,-0.198l0,2.34l2.25,0l-0.18,1.278l-2.07,0l0,5.652c0,0.492 0.087,0.849 0.261,1.071c0.174,0.222 0.465,0.333 0.873,0.333c0.372,0 0.792,-0.126 1.26,-0.378l0.63,1.098Z" style="fill:#0e5095;fill-rule:nonzero;"/><path d="M583.007,85.827l0,9.486l-1.656,0l0,-9.486l1.656,0Zm-0.846,-4.554c0.348,0 0.63,0.108 0.846,0.324c0.216,0.216 0.324,0.486 0.324,0.81c0,0.324 -0.108,0.591 -0.324,0.801c-0.216,0.21 -0.498,0.315 -0.846,0.315c-0.336,0 -0.612,-0.105 -0.828,-0.315c-0.216,-0.21 -0.324,-0.477 -0.324,-0.801c0,-0.324 0.108,-0.594 0.324,-0.81c0.216,-0.216 0.492,-0.324 0.828,-0.324Z" style="fill:#0e5095;fill-rule:nonzero;"/><path d="M589.991,85.611c1.332,0 2.367,0.444 3.105,1.332c0.738,0.888 1.107,2.094 1.107,3.618c0,0.984 -0.168,1.851 -0.504,2.601c-0.336,0.75 -0.822,1.332 -1.458,1.746c-0.636,0.414 -1.392,0.621 -2.268,0.621c-1.332,0 -2.37,-0.444 -3.114,-1.332c-0.744,-0.888 -1.116,-2.094 -1.116,-3.618c0,-0.984 0.168,-1.851 0.504,-2.601c0.336,-0.75 0.822,-1.332 1.458,-1.746c0.636,-0.414 1.398,-0.621 2.286,-0.621Zm0,1.332c-1.644,0 -2.466,1.212 -2.466,3.636c0,2.412 0.816,3.618 2.448,3.618c1.632,0 2.448,-1.212 2.448,-3.636c0,-2.412 -0.81,-3.618 -2.43,-3.618Z" style="fill:#0e5095;fill-rule:nonzero;"/><path d="M601.403,85.611c0.864,0 1.539,0.258 2.025,0.774c0.486,0.516 0.729,1.224 0.729,2.124l0,6.804l-1.656,0l0,-6.57c0,-0.672 -0.126,-1.146 -0.378,-1.422c-0.252,-0.276 -0.624,-0.414 -1.116,-0.414c-0.504,0 -0.948,0.144 -1.332,0.432c-0.384,0.288 -0.744,0.702 -1.08,1.242l0,6.732l-1.656,0l0,-9.486l1.422,0l0.144,1.404c0.336,-0.504 0.753,-0.9 1.251,-1.188c0.498,-0.288 1.047,-0.432 1.647,-0.432Z" style="fill:#0e5095;fill-rule:nonzero;"/></g><g><path d="M777.075,95.313l0,-12.402l6.588,0l-0.198,1.368l-4.68,0l0,4.23l4.05,0l0,1.35l-4.05,0l0,5.454l-1.71,0Z" style="fill:#0e5095;fill-rule:nonzero;"/><path d="M786.849,85.827l0,9.486l-1.656,0l0,-9.486l1.656,0Zm-0.846,-4.554c0.348,0 0.63,0.108 0.846,0.324c0.216,0.216 0.324,0.486 0.324,0.81c0,0.324 -0.108,0.591 -0.324,0.801c-0.216,0.21 -0.498,0.315 -0.846,0.315c-0.336,0 -0.612,-0.105 -0.828,-0.315c-0.216,-0.21 -0.324,-0.477 -0.324,-0.801c0,-0.324 0.108,-0.594 0.324,-0.81c0.216,-0.216 0.492,-0.324 0.828,-0.324Z" style="fill:#0e5095;fill-rule:nonzero;"/><path d="M792.159,95.529c-0.612,0 -1.095,-0.183 -1.449,-0.549c-0.354,-0.366 -0.531,-0.879 -0.531,-1.539l0,-11.43l1.656,-0.198l0,11.592c0,0.264 0.045,0.456 0.135,0.576c0.09,0.12 0.243,0.18 0.459,0.18c0.228,0 0.432,-0.036 0.612,-0.108l0.432,1.152c-0.396,0.216 -0.834,0.324 -1.314,0.324Z" style="fill:#0e5095;fill-rule:nonzero;"/><path d="M802.617,90.291c0,0.276 -0.012,0.558 -0.036,0.846l-6.048,0c0.072,1.044 0.336,1.812 0.792,2.304c0.456,0.492 1.044,0.738 1.764,0.738c0.456,0 0.876,-0.066 1.26,-0.198c0.384,-0.132 0.786,-0.342 1.206,-0.63l0.72,0.99c-1.008,0.792 -2.112,1.188 -3.312,1.188c-1.32,0 -2.349,-0.432 -3.087,-1.296c-0.738,-0.864 -1.107,-2.052 -1.107,-3.564c0,-0.984 0.159,-1.857 0.477,-2.619c0.318,-0.762 0.774,-1.359 1.368,-1.791c0.594,-0.432 1.293,-0.648 2.097,-0.648c1.26,0 2.226,0.414 2.898,1.242c0.672,0.828 1.008,1.974 1.008,3.438Zm-1.638,-0.486c0,-0.936 -0.186,-1.65 -0.558,-2.142c-0.372,-0.492 -0.93,-0.738 -1.674,-0.738c-1.356,0 -2.094,0.996 -2.214,2.988l4.446,0l0,-0.108Z" style="fill:#0e5095;fill-rule:nonzero;"/><path d="M812.607,85.611c0.648,0 1.23,0.09 1.746,0.27c0.516,0.18 1.008,0.45 1.476,0.81l-0.702,1.044c-0.432,-0.276 -0.843,-0.48 -1.233,-0.612c-0.39,-0.132 -0.801,-0.198 -1.233,-0.198c-0.54,0 -0.966,0.111 -1.278,0.333c-0.312,0.222 -0.468,0.525 -0.468,0.909c0,0.384 0.147,0.684 0.441,0.9c0.294,0.216 0.825,0.426 1.593,0.63c1.056,0.264 1.845,0.624 2.367,1.08c0.522,0.456 0.783,1.08 0.783,1.872c0,0.936 -0.363,1.65 -1.089,2.142c-0.726,0.492 -1.611,0.738 -2.655,0.738c-1.44,0 -2.634,-0.414 -3.582,-1.242l0.882,-1.008c0.804,0.612 1.692,0.918 2.664,0.918c0.624,0 1.119,-0.129 1.485,-0.387c0.366,-0.258 0.549,-0.609 0.549,-1.053c0,-0.324 -0.066,-0.585 -0.198,-0.783c-0.132,-0.198 -0.36,-0.372 -0.684,-0.522c-0.324,-0.15 -0.798,-0.309 -1.422,-0.477c-1.008,-0.264 -1.737,-0.618 -2.187,-1.062c-0.45,-0.444 -0.675,-1.008 -0.675,-1.692c0,-0.492 0.147,-0.939 0.441,-1.341c0.294,-0.402 0.702,-0.714 1.224,-0.936c0.522,-0.222 1.107,-0.333 1.755,-0.333Z" style="fill:#0e5095;fill-rule:nonzero;"/><path d="M822.903,85.611c0.864,0 1.539,0.258 2.025,0.774c0.486,0.516 0.729,1.224 0.729,2.124l0,6.804l-1.656,0l0,-6.57c0,-0.672 -0.129,-1.146 -0.387,-1.422c-0.258,-0.276 -0.633,-0.414 -1.125,-0.414c-0.492,0 -0.93,0.144 -1.314,0.432c-0.384,0.288 -0.744,0.696 -1.08,1.224l0,6.75l-1.656,0l0,-13.284l1.656,-0.18l0,5.292c0.744,-1.02 1.68,-1.53 2.808,-1.53Z" style="fill:#0e5095;fill-rule:nonzero;"/><path d="M835.377,93.099c0,0.384 0.066,0.669 0.198,0.855c0.132,0.186 0.33,0.327 0.594,0.423l-0.378,1.152c-0.492,-0.06 -0.888,-0.198 -1.188,-0.414c-0.3,-0.216 -0.522,-0.552 -0.666,-1.008c-0.636,0.948 -1.578,1.422 -2.826,1.422c-0.936,0 -1.674,-0.264 -2.214,-0.792c-0.54,-0.528 -0.81,-1.218 -0.81,-2.07c0,-1.008 0.363,-1.782 1.089,-2.322c0.726,-0.54 1.755,-0.81 3.087,-0.81l1.458,0l0,-0.702c0,-0.672 -0.162,-1.152 -0.486,-1.44c-0.324,-0.288 -0.822,-0.432 -1.494,-0.432c-0.696,0 -1.548,0.168 -2.556,0.504l-0.414,-1.206c1.176,-0.432 2.268,-0.648 3.276,-0.648c1.116,0 1.95,0.273 2.502,0.819c0.552,0.546 0.828,1.323 0.828,2.331l0,4.338Zm-3.888,1.188c0.948,0 1.692,-0.492 2.232,-1.476l0,-2.178l-1.242,0c-1.752,0 -2.628,0.648 -2.628,1.944c0,0.564 0.138,0.99 0.414,1.278c0.276,0.288 0.684,0.432 1.224,0.432Z" style="fill:#0e5095;fill-rule:nonzero;"/><path d="M842.901,85.611c0.336,0 0.648,0.036 0.936,0.108l-0.306,1.62c-0.288,-0.072 -0.564,-0.108 -0.828,-0.108c-0.588,0 -1.062,0.216 -1.422,0.648c-0.36,0.432 -0.642,1.104 -0.846,2.016l0,5.418l-1.656,0l0,-9.486l1.422,0l0.162,1.926c0.252,-0.708 0.594,-1.242 1.026,-1.602c0.432,-0.36 0.936,-0.54 1.512,-0.54Z" style="fill:#0e5095;fill-rule:nonzero;"/><path d="M847.383,85.827l0,9.486l-1.656,0l0,-9.486l1.656,0Zm-0.846,-4.554c0.348,0 0.63,0.108 0.846,0.324c0.216,0.216 0.324,0.486 0.324,0.81c0,0.324 -0.108,0.591 -0.324,0.801c-0.216,0.21 -0.498,0.315 -0.846,0.315c-0.336,0 -0.612,-0.105 -0.828,-0.315c-0.216,-0.21 -0.324,-0.477 -0.324,-0.801c0,-0.324 0.108,-0.594 0.324,-0.81c0.216,-0.216 0.492,-0.324 0.828,-0.324Z" style="fill:#0e5095;fill-rule:nonzero;"/><path d="M855.267,85.611c0.864,0 1.539,0.258 2.025,0.774c0.486,0.516 0.729,1.224 0.729,2.124l0,6.804l-1.656,0l0,-6.57c0,-0.672 -0.126,-1.146 -0.378,-1.422c-0.252,-0.276 -0.624,-0.414 -1.116,-0.414c-0.504,0 -0.948,0.144 -1.332,0.432c-0.384,0.288 -0.744,0.702 -1.08,1.242l0,6.732l-1.656,0l0,-9.486l1.422,0l0.144,1.404c0.336,-0.504 0.753,-0.9 1.251,-1.188c0.498,-0.288 1.047,-0.432 1.647,-0.432Z" style="fill:#0e5095;fill-rule:nonzero;"/><path d="M869.001,86.259c-0.36,0.12 -0.756,0.198 -1.188,0.234c-0.432,0.036 -0.96,0.054 -1.584,0.054c1.116,0.504 1.674,1.302 1.674,2.394c0,0.948 -0.324,1.722 -0.972,2.322c-0.648,0.6 -1.53,0.9 -2.646,0.9c-0.432,0 -0.834,-0.06 -1.206,-0.18c-0.144,0.096 -0.258,0.225 -0.342,0.387c-0.084,0.162 -0.126,0.327 -0.126,0.495c0,0.516 0.414,0.774 1.242,0.774l1.512,0c0.636,0 1.2,0.114 1.692,0.342c0.492,0.228 0.873,0.54 1.143,0.936c0.27,0.396 0.405,0.846 0.405,1.35c0,0.924 -0.378,1.635 -1.134,2.133c-0.756,0.498 -1.86,0.747 -3.312,0.747c-1.02,0 -1.827,-0.105 -2.421,-0.315c-0.594,-0.21 -1.017,-0.525 -1.269,-0.945c-0.252,-0.42 -0.378,-0.96 -0.378,-1.62l1.494,0c0,0.384 0.072,0.687 0.216,0.909c0.144,0.222 0.402,0.39 0.774,0.504c0.372,0.114 0.9,0.171 1.584,0.171c0.996,0 1.707,-0.123 2.133,-0.369c0.426,-0.246 0.639,-0.615 0.639,-1.107c0,-0.444 -0.168,-0.78 -0.504,-1.008c-0.336,-0.228 -0.804,-0.342 -1.404,-0.342l-1.494,0c-0.804,0 -1.413,-0.171 -1.827,-0.513c-0.414,-0.342 -0.621,-0.771 -0.621,-1.287c0,-0.312 0.09,-0.612 0.27,-0.9c0.18,-0.288 0.438,-0.546 0.774,-0.774c-0.552,-0.288 -0.957,-0.645 -1.215,-1.071c-0.258,-0.426 -0.387,-0.945 -0.387,-1.557c0,-0.636 0.159,-1.206 0.477,-1.71c0.318,-0.504 0.756,-0.897 1.314,-1.179c0.558,-0.282 1.179,-0.423 1.863,-0.423c0.744,0.012 1.368,-0.015 1.872,-0.081c0.504,-0.066 0.921,-0.156 1.251,-0.27c0.33,-0.114 0.735,-0.279 1.215,-0.495l0.486,1.494Zm-4.824,0.54c-0.624,0 -1.107,0.195 -1.449,0.585c-0.342,0.39 -0.513,0.903 -0.513,1.539c0,0.648 0.174,1.167 0.522,1.557c0.348,0.39 0.84,0.585 1.476,0.585c0.648,0 1.143,-0.189 1.485,-0.567c0.342,-0.378 0.513,-0.909 0.513,-1.593c0,-1.404 -0.678,-2.106 -2.034,-2.106Z" style="fill:#0e5095;fill-rule:nonzero;"/></g></svg>