<?xml version="1.0" encoding="UTF-8" standalone="no"?><!DOCTYPE svg PUBLIC "-//W3C//DTD SVG 1.1//EN" "http://www.w3.org/Graphics/SVG/1.1/DTD/svg11.dtd"><svg width="100%" height="100%" viewBox="0 0 1000 438" version="1.1" xmlns="http://www.w3.org/2000/svg" xmlns:xlink="http://www.w3.org/1999/xlink" xml:space="preserve" xmlns:serif="http://www.serif.com/" style="fill-rule:evenodd;clip-rule:evenodd;stroke-linejoin:round;stroke-miterlimit:1.41421;"><rect id="Artboard2" x="0" y="0" width="1000" height="437.32" style="fill:none;"/><clipPath id="_clip1"><rect x="0" y="0" width="1000" height="437.32"/></clipPath><g clip-path="url(#_clip1)"><rect id="Artboard1" x="0" y="0" width="1000" height="910.924" style="fill:none;"/><g><path d="M590.396,87.777c0,-24.946 -20.253,-45.198 -45.198,-45.198l-90.396,0c-24.945,0 -45.198,20.252 -45.198,45.198l0,90.396c0,24.945 20.253,45.198 45.198,45.198l90.396,0c24.945,0 45.198,-20.253 45.198,-45.198l0,-90.396Z" style="fill:#00c6fc;fill-opacity:0.360784;"/><path d="M501.64,77.973c8.32,0.05 17.315,2.174 21.591,9.074c2.042,3.297 2.555,8.103 -0.917,9.846c-2.719,1.366 -6.299,-0.306 -6.996,-3.587c-0.667,-2.982 -4.208,-4.132 -6.677,-4.747c-11.559,-2.88 -24.421,1.977 -32.822,10.401c-11.515,11.546 -16.454,29.232 -16.537,44.376c-0.072,13.07 5.16,27.727 18.41,32.682c9.914,3.708 21.191,2.34 31.699,0.34c11.906,-2.267 23.392,-6.319 34.719,-10.705c0,0 1.748,-0.617 3.314,-0.054c3.608,1.298 4.096,7.473 0.12,9.19c-17.883,7.211 -36.601,13.366 -56.172,13.183c-9.874,-0.092 -19.907,-2.345 -27.619,-9.048c-12.054,-10.476 -15.499,-28.407 -13.594,-44.403c2.662,-22.348 14.098,-44.654 34.746,-53.171c5.297,-2.184 11.043,-3.386 16.735,-3.377Z" style="fill-rule:nonzero;"/><path d="M511.015,104.053c4.062,0.156 6.399,7.172 0.311,8.78c-10.402,2.789 -20.53,8.425 -26.974,16.755c0,0 4.169,1.165 7.518,1.536c6.809,0.754 13.578,1.481 20.416,2.463c5.645,0.777 12.863,1.491 13.583,8.292c0.473,4.467 -3.714,8.235 -7.015,10.937c-10.101,8.265 -21.814,14.284 -33.869,19.424c-0.343,0.142 -0.359,0.137 -0.509,0.18c-3.987,1.147 -8.729,-5.643 -2.686,-8.243c10.751,-4.628 21.225,-9.983 30.41,-17.022c1.572,-1.204 3.086,-2.503 4.388,-3.989c0,0 -5.01,-0.952 -9.25,-1.56c-9.821,-1.391 -20.584,-0.627 -28.868,-5.132c-2.53,-1.376 -4.366,-4.106 -3.71,-7.193c0.654,-3.078 2.893,-5.508 4.983,-7.726c8.021,-8.516 18.682,-14.426 30.055,-17.361c0.55,-0.138 0.325,-0.151 1.217,-0.141Z" style="fill-rule:nonzero;"/></g><g><path d="M169.52,252.964c3.024,0 5.628,0.444 7.812,1.332c2.184,0.888 4.308,2.268 6.372,4.14l-2.52,2.736c-1.872,-1.584 -3.696,-2.736 -5.472,-3.456c-1.776,-0.72 -3.792,-1.08 -6.048,-1.08c-3.072,0 -5.544,0.756 -7.416,2.268c-1.872,1.512 -2.808,3.54 -2.808,6.084c0,1.728 0.348,3.156 1.044,4.284c0.696,1.128 1.86,2.136 3.492,3.024c1.632,0.888 3.96,1.788 6.984,2.7c3.264,1.008 5.904,2.088 7.92,3.24c2.016,1.152 3.576,2.64 4.68,4.464c1.104,1.824 1.656,4.128 1.656,6.912c0,2.784 -0.672,5.256 -2.016,7.416c-1.344,2.16 -3.252,3.84 -5.724,5.04c-2.472,1.2 -5.34,1.8 -8.604,1.8c-6.144,0 -11.4,-2.064 -15.768,-6.192l2.448,-2.736c2.016,1.728 4.056,3.036 6.12,3.924c2.064,0.888 4.44,1.332 7.128,1.332c3.552,0 6.444,-0.936 8.676,-2.808c2.232,-1.872 3.348,-4.416 3.348,-7.632c0,-2.016 -0.372,-3.672 -1.116,-4.968c-0.744,-1.296 -1.944,-2.412 -3.6,-3.348c-1.656,-0.936 -3.996,-1.884 -7.02,-2.844c-5.04,-1.536 -8.64,-3.312 -10.8,-5.328c-2.16,-2.016 -3.24,-4.752 -3.24,-8.208c0,-2.304 0.612,-4.38 1.836,-6.228c1.224,-1.848 2.928,-3.288 5.112,-4.32c2.184,-1.032 4.692,-1.548 7.524,-1.548Z" style="fill-rule:nonzero;"/><path d="M213.872,301.492c-2.4,1.584 -5.04,2.376 -7.92,2.376c-2.88,0 -5.136,-0.852 -6.768,-2.556c-1.632,-1.704 -2.448,-4.164 -2.448,-7.38l0,-25.128l-6.336,0l0,-3.384l6.336,0l0,-9l4.176,-0.504l0,9.504l9.72,0l-0.504,3.384l-9.216,0l0,24.912c0,2.208 0.456,3.852 1.368,4.932c0.912,1.08 2.304,1.62 4.176,1.62c1.92,0 3.84,-0.552 5.76,-1.656l1.656,2.88Z" style="fill-rule:nonzero;"/><path d="M247.712,303.076l-3.6,0l-0.216,-6.696c-2.976,4.992 -7.08,7.488 -12.312,7.488c-3.408,0 -6.036,-0.996 -7.884,-2.988c-1.848,-1.992 -2.772,-4.836 -2.772,-8.532l0,-26.928l4.176,0l0,26.496c0,2.928 0.612,5.076 1.836,6.444c1.224,1.368 3.084,2.052 5.58,2.052c4.368,0 8.04,-2.568 11.016,-7.704l0,-27.288l4.176,0l0,37.656Z" style="fill-rule:nonzero;"/><path d="M289.832,250.084l0,52.992l-3.6,0l-0.504,-5.76c-2.592,4.368 -6.36,6.552 -11.304,6.552c-4.368,0 -7.812,-1.74 -10.332,-5.22c-2.52,-3.48 -3.78,-8.22 -3.78,-14.22c0,-3.888 0.588,-7.32 1.764,-10.296c1.176,-2.976 2.88,-5.304 5.112,-6.984c2.232,-1.68 4.86,-2.52 7.884,-2.52c4.272,0 7.8,1.704 10.584,5.112l0,-20.16l4.176,0.504Zm-14.76,50.328c2.4,0 4.428,-0.576 6.084,-1.728c1.656,-1.152 3.156,-2.904 4.5,-5.256l0,-19.656c-2.688,-3.792 -5.976,-5.688 -9.864,-5.688c-3.408,0 -6.108,1.416 -8.1,4.248c-1.992,2.832 -2.964,6.84 -2.916,12.024c0,5.184 0.912,9.156 2.736,11.916c1.824,2.76 4.344,4.14 7.56,4.14Z" style="fill-rule:nonzero;"/><path d="M331.808,282.844c0,1.056 -0.048,2.064 -0.144,3.024l-25.128,0c0.24,4.896 1.404,8.532 3.492,10.908c2.088,2.376 4.836,3.564 8.244,3.564c1.968,0 3.708,-0.3 5.22,-0.9c1.512,-0.6 3.156,-1.548 4.932,-2.844l1.944,2.664c-1.872,1.536 -3.792,2.688 -5.76,3.456c-1.968,0.768 -4.152,1.152 -6.552,1.152c-4.992,0 -8.904,-1.704 -11.736,-5.112c-2.832,-3.408 -4.248,-8.136 -4.248,-14.184c0,-3.984 0.612,-7.476 1.836,-10.476c1.224,-3 2.976,-5.328 5.256,-6.984c2.28,-1.656 4.932,-2.484 7.956,-2.484c4.8,0 8.448,1.62 10.944,4.86c2.496,3.24 3.744,7.692 3.744,13.356Zm-4.104,-1.296c0,-4.224 -0.876,-7.524 -2.628,-9.9c-1.752,-2.376 -4.356,-3.564 -7.812,-3.564c-3.12,0 -5.64,1.2 -7.56,3.6c-1.92,2.4 -2.976,6.048 -3.168,10.944l21.168,0l0,-1.08Z" style="fill-rule:nonzero;"/><path d="M360.32,264.628c3.408,0 6.012,1.008 7.812,3.024c1.8,2.016 2.7,4.848 2.7,8.496l0,26.928l-4.176,0l0,-26.352c0,-3.024 -0.6,-5.232 -1.8,-6.624c-1.2,-1.392 -2.976,-2.088 -5.328,-2.088c-2.4,0 -4.524,0.66 -6.372,1.98c-1.848,1.32 -3.612,3.252 -5.292,5.796l0,27.288l-4.176,0l0,-37.656l3.6,0l0.432,6.408c1.536,-2.256 3.36,-4.02 5.472,-5.292c2.112,-1.272 4.488,-1.908 7.128,-1.908Z" style="fill-rule:nonzero;"/><path d="M402.872,301.492c-2.4,1.584 -5.04,2.376 -7.92,2.376c-2.88,0 -5.136,-0.852 -6.768,-2.556c-1.632,-1.704 -2.448,-4.164 -2.448,-7.38l0,-25.128l-6.336,0l0,-3.384l6.336,0l0,-9l4.176,-0.504l0,9.504l9.72,0l-0.504,3.384l-9.216,0l0,24.912c0,2.208 0.456,3.852 1.368,4.932c0.912,1.08 2.304,1.62 4.176,1.62c1.92,0 3.84,-0.552 5.76,-1.656l1.656,2.88Z" style="fill-rule:nonzero;"/><path d="M447.44,252.964c2.736,0 5.052,0.372 6.948,1.116c1.896,0.744 3.804,1.884 5.724,3.42l-2.304,2.88c-1.68,-1.344 -3.288,-2.304 -4.824,-2.88c-1.536,-0.576 -3.288,-0.864 -5.256,-0.864c-4.656,0 -8.436,1.776 -11.34,5.328c-2.904,3.552 -4.356,9.024 -4.356,16.416c0,4.8 0.672,8.832 2.016,12.096c1.344,3.264 3.18,5.676 5.508,7.236c2.328,1.56 4.98,2.34 7.956,2.34c2.352,0 4.344,-0.348 5.976,-1.044c1.632,-0.696 3.288,-1.716 4.968,-3.06l2.232,2.808c-3.6,3.408 -8.04,5.112 -13.32,5.112c-3.84,0 -7.26,-0.984 -10.26,-2.952c-3,-1.968 -5.352,-4.86 -7.056,-8.676c-1.704,-3.816 -2.556,-8.436 -2.556,-13.86c0,-5.424 0.888,-10.044 2.664,-13.86c1.776,-3.816 4.164,-6.696 7.164,-8.64c3,-1.944 6.372,-2.916 10.116,-2.916Z" style="fill-rule:nonzero;"/><path d="M481.496,264.628c4.992,0 8.892,1.716 11.7,5.148c2.808,3.432 4.212,8.22 4.212,14.364c0,6.096 -1.428,10.908 -4.284,14.436c-2.856,3.528 -6.756,5.292 -11.7,5.292c-4.992,0 -8.892,-1.74 -11.7,-5.22c-2.808,-3.48 -4.212,-8.268 -4.212,-14.364c0,-3.984 0.648,-7.464 1.944,-10.44c1.296,-2.976 3.144,-5.256 5.544,-6.84c2.4,-1.584 5.232,-2.376 8.496,-2.376Zm0,3.528c-3.648,0 -6.48,1.368 -8.496,4.104c-2.016,2.736 -3.024,6.744 -3.024,12.024c0,5.232 0.996,9.216 2.988,11.952c1.992,2.736 4.812,4.104 8.46,4.104c3.648,0 6.492,-1.368 8.532,-4.104c2.04,-2.736 3.06,-6.768 3.06,-12.096c0,-5.232 -0.996,-9.204 -2.988,-11.916c-1.992,-2.712 -4.836,-4.068 -8.532,-4.068Z" style="fill-rule:nonzero;"/><path d="M515.912,303.868c-2.064,0 -3.684,-0.6 -4.86,-1.8c-1.176,-1.2 -1.764,-2.976 -1.764,-5.328l0,-46.656l4.176,-0.504l0,47.016c0,2.448 1.008,3.672 3.024,3.672c1.008,0 1.872,-0.168 2.592,-0.504l1.152,3.096c-1.344,0.672 -2.784,1.008 -4.32,1.008Z" style="fill-rule:nonzero;"/><path d="M536.36,303.868c-2.064,0 -3.684,-0.6 -4.86,-1.8c-1.176,-1.2 -1.764,-2.976 -1.764,-5.328l0,-46.656l4.176,-0.504l0,47.016c0,2.448 1.008,3.672 3.024,3.672c1.008,0 1.872,-0.168 2.592,-0.504l1.152,3.096c-1.344,0.672 -2.784,1.008 -4.32,1.008Z" style="fill-rule:nonzero;"/><path d="M573.584,294.724c0,1.968 0.252,3.384 0.756,4.248c0.504,0.864 1.308,1.512 2.412,1.944l-0.936,2.952c-1.728,-0.336 -3.06,-0.984 -3.996,-1.944c-0.936,-0.96 -1.548,-2.424 -1.836,-4.392c-2.592,4.224 -6.504,6.336 -11.736,6.336c-3.6,0 -6.444,-1.02 -8.532,-3.06c-2.088,-2.04 -3.132,-4.764 -3.132,-8.172c0,-3.888 1.38,-6.888 4.14,-9c2.76,-2.112 6.588,-3.168 11.484,-3.168l7.2,0l0,-3.672c0,-3.024 -0.672,-5.22 -2.016,-6.588c-1.344,-1.368 -3.576,-2.052 -6.696,-2.052c-2.88,0 -6.288,0.72 -10.224,2.16l-1.08,-3.168c4.224,-1.68 8.184,-2.52 11.88,-2.52c8.208,0 12.312,3.984 12.312,11.952l0,18.144Zm-14.616,5.76c4.512,0 7.992,-2.208 10.44,-6.624l0,-10.368l-6.552,0c-3.84,0 -6.768,0.744 -8.784,2.232c-2.016,1.488 -3.024,3.72 -3.024,6.696c0,2.592 0.696,4.584 2.088,5.976c1.392,1.392 3.336,2.088 5.832,2.088Z" style="fill-rule:nonzero;"/><path d="M604.256,264.628c4.368,0 7.752,1.68 10.152,5.04c2.4,3.36 3.6,8.16 3.6,14.4c0,6.096 -1.26,10.92 -3.78,14.472c-2.52,3.552 -6.036,5.328 -10.548,5.328c-2.256,0 -4.308,-0.504 -6.156,-1.512c-1.848,-1.008 -3.396,-2.352 -4.644,-4.032l-0.432,4.752l-3.672,0l0,-52.992l4.176,-0.504l0,21.096c2.976,-4.032 6.744,-6.048 11.304,-6.048Zm-1.368,35.784c3.408,0 6.036,-1.38 7.884,-4.14c1.848,-2.76 2.772,-6.828 2.772,-12.204c0,-10.656 -3.384,-15.984 -10.152,-15.984c-2.256,0 -4.2,0.564 -5.832,1.692c-1.632,1.128 -3.168,2.724 -4.608,4.788l0,19.8c1.2,1.872 2.64,3.348 4.32,4.428c1.68,1.08 3.552,1.62 5.616,1.62Z" style="fill-rule:nonzero;"/><path d="M643.568,264.628c4.992,0 8.892,1.716 11.7,5.148c2.808,3.432 4.212,8.22 4.212,14.364c0,6.096 -1.428,10.908 -4.284,14.436c-2.856,3.528 -6.756,5.292 -11.7,5.292c-4.992,0 -8.892,-1.74 -11.7,-5.22c-2.808,-3.48 -4.212,-8.268 -4.212,-14.364c0,-3.984 0.648,-7.464 1.944,-10.44c1.296,-2.976 3.144,-5.256 5.544,-6.84c2.4,-1.584 5.232,-2.376 8.496,-2.376Zm0,3.528c-3.648,0 -6.48,1.368 -8.496,4.104c-2.016,2.736 -3.024,6.744 -3.024,12.024c0,5.232 0.996,9.216 2.988,11.952c1.992,2.736 4.812,4.104 8.46,4.104c3.648,0 6.492,-1.368 8.532,-4.104c2.04,-2.736 3.06,-6.768 3.06,-12.096c0,-5.232 -0.996,-9.204 -2.988,-11.916c-1.992,-2.712 -4.836,-4.068 -8.532,-4.068Z" style="fill-rule:nonzero;"/><path d="M686.336,264.628c1.488,0 2.736,0.144 3.744,0.432l-0.792,3.96c-1.056,-0.288 -2.16,-0.432 -3.312,-0.432c-2.544,0 -4.596,0.924 -6.156,2.772c-1.56,1.848 -2.868,4.74 -3.924,8.676l0,23.04l-4.176,0l0,-37.656l3.6,0l0.36,8.424c1.008,-3.12 2.388,-5.436 4.14,-6.948c1.752,-1.512 3.924,-2.268 6.516,-2.268Z" style="fill-rule:nonzero;"/><path d="M719.456,294.724c0,1.968 0.252,3.384 0.756,4.248c0.504,0.864 1.308,1.512 2.412,1.944l-0.936,2.952c-1.728,-0.336 -3.06,-0.984 -3.996,-1.944c-0.936,-0.96 -1.548,-2.424 -1.836,-4.392c-2.592,4.224 -6.504,6.336 -11.736,6.336c-3.6,0 -6.444,-1.02 -8.532,-3.06c-2.088,-2.04 -3.132,-4.764 -3.132,-8.172c0,-3.888 1.38,-6.888 4.14,-9c2.76,-2.112 6.588,-3.168 11.484,-3.168l7.2,0l0,-3.672c0,-3.024 -0.672,-5.22 -2.016,-6.588c-1.344,-1.368 -3.576,-2.052 -6.696,-2.052c-2.88,0 -6.288,0.72 -10.224,2.16l-1.08,-3.168c4.224,-1.68 8.184,-2.52 11.88,-2.52c8.208,0 12.312,3.984 12.312,11.952l0,18.144Zm-14.616,5.76c4.512,0 7.992,-2.208 10.44,-6.624l0,-10.368l-6.552,0c-3.84,0 -6.768,0.744 -8.784,2.232c-2.016,1.488 -3.024,3.72 -3.024,6.696c0,2.592 0.696,4.584 2.088,5.976c1.392,1.392 3.336,2.088 5.832,2.088Z" style="fill-rule:nonzero;"/><path d="M751.784,301.492c-2.4,1.584 -5.04,2.376 -7.92,2.376c-2.88,0 -5.136,-0.852 -6.768,-2.556c-1.632,-1.704 -2.448,-4.164 -2.448,-7.38l0,-25.128l-6.336,0l0,-3.384l6.336,0l0,-9l4.176,-0.504l0,9.504l9.72,0l-0.504,3.384l-9.216,0l0,24.912c0,2.208 0.456,3.852 1.368,4.932c0.912,1.08 2.304,1.62 4.176,1.62c1.92,0 3.84,-0.552 5.76,-1.656l1.656,2.88Z" style="fill-rule:nonzero;"/><path d="M763.376,265.42l0,37.656l-4.176,0l0,-37.656l4.176,0Zm-2.16,-16.56c0.96,0 1.728,0.288 2.304,0.864c0.576,0.576 0.864,1.296 0.864,2.16c0,0.864 -0.288,1.584 -0.864,2.16c-0.576,0.576 -1.344,0.864 -2.304,0.864c-0.912,0 -1.656,-0.288 -2.232,-0.864c-0.576,-0.576 -0.864,-1.296 -0.864,-2.16c0,-0.864 0.288,-1.584 0.864,-2.16c0.576,-0.576 1.32,-0.864 2.232,-0.864Z" style="fill-rule:nonzero;"/><path d="M791.6,264.628c4.992,0 8.892,1.716 11.7,5.148c2.808,3.432 4.212,8.22 4.212,14.364c0,6.096 -1.428,10.908 -4.284,14.436c-2.856,3.528 -6.756,5.292 -11.7,5.292c-4.992,0 -8.892,-1.74 -11.7,-5.22c-2.808,-3.48 -4.212,-8.268 -4.212,-14.364c0,-3.984 0.648,-7.464 1.944,-10.44c1.296,-2.976 3.144,-5.256 5.544,-6.84c2.4,-1.584 5.232,-2.376 8.496,-2.376Zm0,3.528c-3.648,0 -6.48,1.368 -8.496,4.104c-2.016,2.736 -3.024,6.744 -3.024,12.024c0,5.232 0.996,9.216 2.988,11.952c1.992,2.736 4.812,4.104 8.46,4.104c3.648,0 6.492,-1.368 8.532,-4.104c2.04,-2.736 3.06,-6.768 3.06,-12.096c0,-5.232 -0.996,-9.204 -2.988,-11.916c-1.992,-2.712 -4.836,-4.068 -8.532,-4.068Z" style="fill-rule:nonzero;"/><path d="M836.384,264.628c3.408,0 6.012,1.008 7.812,3.024c1.8,2.016 2.7,4.848 2.7,8.496l0,26.928l-4.176,0l0,-26.352c0,-3.024 -0.6,-5.232 -1.8,-6.624c-1.2,-1.392 -2.976,-2.088 -5.328,-2.088c-2.4,0 -4.524,0.66 -6.372,1.98c-1.848,1.32 -3.612,3.252 -5.292,5.796l0,27.288l-4.176,0l0,-37.656l3.6,0l0.432,6.408c1.536,-2.256 3.36,-4.02 5.472,-5.292c2.112,-1.272 4.488,-1.908 7.128,-1.908Z" style="fill-rule:nonzero;"/></g><g><path d="M154.148,396.573l-1.548,-5.76l-8.244,0l-1.548,5.76l-4.932,0l7.74,-24.876l5.868,0l7.704,24.876l-5.04,0Zm-8.856,-9.36l6.336,0l-3.168,-11.88l-3.168,11.88Z" style="fill:#0e5095;fill-rule:nonzero;"/><path d="M171.968,376.989c1.704,0 3.03,0.51 3.978,1.53c0.948,1.02 1.422,2.442 1.422,4.266l0,13.788l-4.608,0l0,-13.068c0,-1.128 -0.198,-1.92 -0.594,-2.376c-0.396,-0.456 -0.978,-0.684 -1.746,-0.684c-0.792,0 -1.506,0.246 -2.142,0.738c-0.636,0.492 -1.254,1.206 -1.854,2.142l0,13.248l-4.608,0l0,-19.044l3.996,0l0.36,2.484c1.56,-2.016 3.492,-3.024 5.796,-3.024Z" style="fill:#0e5095;fill-rule:nonzero;"/><path d="M199.508,376.989c2.808,0 4.998,0.894 6.57,2.682c1.572,1.788 2.358,4.242 2.358,7.362c0,1.992 -0.36,3.75 -1.08,5.274c-0.72,1.524 -1.752,2.706 -3.096,3.546c-1.344,0.84 -2.94,1.26 -4.788,1.26c-2.808,0 -5.004,-0.894 -6.588,-2.682c-1.584,-1.788 -2.376,-4.254 -2.376,-7.398c0,-1.992 0.36,-3.744 1.08,-5.256c0.72,-1.512 1.758,-2.688 3.114,-3.528c1.356,-0.84 2.958,-1.26 4.806,-1.26Zm0,3.492c-2.76,0 -4.14,2.184 -4.14,6.552c0,2.256 0.342,3.918 1.026,4.986c0.684,1.068 1.71,1.602 3.078,1.602c1.368,0 2.394,-0.54 3.078,-1.62c0.684,-1.08 1.026,-2.736 1.026,-4.968c0,-2.232 -0.342,-3.882 -1.026,-4.95c-0.684,-1.068 -1.698,-1.602 -3.042,-1.602Z" style="fill:#0e5095;fill-rule:nonzero;"/><path d="M222.908,376.989c1.704,0 3.03,0.51 3.978,1.53c0.948,1.02 1.422,2.442 1.422,4.266l0,13.788l-4.608,0l0,-13.068c0,-1.128 -0.198,-1.92 -0.594,-2.376c-0.396,-0.456 -0.978,-0.684 -1.746,-0.684c-0.792,0 -1.506,0.246 -2.142,0.738c-0.636,0.492 -1.254,1.206 -1.854,2.142l0,13.248l-4.608,0l0,-19.044l3.996,0l0.36,2.484c1.56,-2.016 3.492,-3.024 5.796,-3.024Z" style="fill:#0e5095;fill-rule:nonzero;"/><path d="M238.172,397.113c-1.464,0 -2.61,-0.426 -3.438,-1.278c-0.828,-0.852 -1.242,-2.058 -1.242,-3.618l0,-22.32l4.608,-0.504l0,22.68c0,0.888 0.36,1.332 1.08,1.332c0.36,0 0.72,-0.06 1.08,-0.18l0.972,3.24c-0.96,0.432 -1.98,0.648 -3.06,0.648Z" style="fill:#0e5095;fill-rule:nonzero;"/><path d="M248.9,377.529l0,19.044l-4.608,0l0,-19.044l4.608,0Zm-2.34,-9.648c0.864,0 1.566,0.27 2.106,0.81c0.54,0.54 0.81,1.206 0.81,1.998c0,0.792 -0.27,1.452 -0.81,1.98c-0.54,0.528 -1.242,0.792 -2.106,0.792c-0.84,0 -1.53,-0.264 -2.07,-0.792c-0.54,-0.528 -0.81,-1.188 -0.81,-1.98c0,-0.792 0.27,-1.458 0.81,-1.998c0.54,-0.54 1.23,-0.81 2.07,-0.81Z" style="fill:#0e5095;fill-rule:nonzero;"/><path d="M264.596,376.989c1.704,0 3.03,0.51 3.978,1.53c0.948,1.02 1.422,2.442 1.422,4.266l0,13.788l-4.608,0l0,-13.068c0,-1.128 -0.198,-1.92 -0.594,-2.376c-0.396,-0.456 -0.978,-0.684 -1.746,-0.684c-0.792,0 -1.506,0.246 -2.142,0.738c-0.636,0.492 -1.254,1.206 -1.854,2.142l0,13.248l-4.608,0l0,-19.044l3.996,0l0.36,2.484c1.56,-2.016 3.492,-3.024 5.796,-3.024Z" style="fill:#0e5095;fill-rule:nonzero;"/><path d="M290.984,386.601c0,0.24 -0.036,0.864 -0.108,1.872l-11.952,0c0.144,1.848 0.624,3.168 1.44,3.96c0.816,0.792 1.896,1.188 3.24,1.188c0.84,0 1.632,-0.138 2.376,-0.414c0.744,-0.276 1.536,-0.702 2.376,-1.278l1.908,2.628c-2.112,1.704 -4.464,2.556 -7.056,2.556c-2.904,0 -5.142,-0.888 -6.714,-2.664c-1.572,-1.776 -2.358,-4.2 -2.358,-7.272c0,-1.944 0.336,-3.69 1.008,-5.238c0.672,-1.548 1.644,-2.76 2.916,-3.636c1.272,-0.876 2.784,-1.314 4.536,-1.314c2.664,0 4.728,0.846 6.192,2.538c1.464,1.692 2.196,4.05 2.196,7.074Zm-4.572,-1.332c0,-3.336 -1.236,-5.004 -3.708,-5.004c-1.128,0 -2.01,0.414 -2.646,1.242c-0.636,0.828 -1.014,2.154 -1.134,3.978l7.488,0l0,-0.216Z" style="fill:#0e5095;fill-rule:nonzero;"/><path d="M313.988,376.989c2.4,0 4.176,0.876 5.328,2.628c1.152,1.752 1.728,4.212 1.728,7.38c0,1.968 -0.294,3.714 -0.882,5.238c-0.588,1.524 -1.452,2.718 -2.592,3.582c-1.14,0.864 -2.49,1.296 -4.05,1.296c-2.016,0 -3.612,-0.696 -4.788,-2.088l0,8.892l-4.608,0.504l0,-26.892l4.032,0l0.252,2.34c0.744,-0.96 1.596,-1.68 2.556,-2.16c0.96,-0.48 1.968,-0.72 3.024,-0.72Zm-1.764,16.596c2.664,0 3.996,-2.184 3.996,-6.552c0,-2.328 -0.3,-4.008 -0.9,-5.04c-0.6,-1.032 -1.5,-1.548 -2.7,-1.548c-0.768,0 -1.488,0.234 -2.16,0.702c-0.672,0.468 -1.248,1.098 -1.728,1.89l0,8.568c0.888,1.32 2.052,1.98 3.492,1.98Z" style="fill:#0e5095;fill-rule:nonzero;"/><path d="M330.08,397.113c-1.464,0 -2.61,-0.426 -3.438,-1.278c-0.828,-0.852 -1.242,-2.058 -1.242,-3.618l0,-22.32l4.608,-0.504l0,22.68c0,0.888 0.36,1.332 1.08,1.332c0.36,0 0.72,-0.06 1.08,-0.18l0.972,3.24c-0.96,0.432 -1.98,0.648 -3.06,0.648Z" style="fill:#0e5095;fill-rule:nonzero;"/><path d="M350.096,391.533c0,0.744 0.114,1.29 0.342,1.638c0.228,0.348 0.594,0.618 1.098,0.81l-0.972,3.06c-1.08,-0.096 -1.962,-0.36 -2.646,-0.792c-0.684,-0.432 -1.206,-1.092 -1.566,-1.98c-0.648,0.96 -1.458,1.674 -2.43,2.142c-0.972,0.468 -2.058,0.702 -3.258,0.702c-1.896,0 -3.396,-0.54 -4.5,-1.62c-1.104,-1.08 -1.656,-2.496 -1.656,-4.248c0,-2.064 0.75,-3.642 2.25,-4.734c1.5,-1.092 3.642,-1.638 6.426,-1.638l2.376,0l0,-1.08c0,-1.224 -0.282,-2.082 -0.846,-2.574c-0.564,-0.492 -1.47,-0.738 -2.718,-0.738c-1.392,0 -3.072,0.336 -5.04,1.008l-1.08,-3.132c2.376,-0.912 4.68,-1.368 6.912,-1.368c4.872,0 7.308,2.184 7.308,6.552l0,7.992Zm-8.208,2.232c1.56,0 2.784,-0.78 3.672,-2.34l0,-3.852l-1.908,0c-2.976,0 -4.464,1.104 -4.464,3.312c0,0.912 0.228,1.62 0.684,2.124c0.456,0.504 1.128,0.756 2.016,0.756Z" style="fill:#0e5095;fill-rule:nonzero;"/><path d="M366.584,395.673c-0.672,0.48 -1.422,0.84 -2.25,1.08c-0.828,0.24 -1.674,0.36 -2.538,0.36c-1.872,-0.024 -3.294,-0.558 -4.266,-1.602c-0.972,-1.044 -1.458,-2.586 -1.458,-4.626l0,-10.044l-2.988,0l0,-3.312l2.988,0l0,-4.212l4.608,-0.54l0,4.752l4.428,0l-0.468,3.312l-3.96,0l0,9.936c0,0.936 0.162,1.608 0.486,2.016c0.324,0.408 0.834,0.612 1.53,0.612c0.696,0 1.452,-0.228 2.268,-0.684l1.62,2.952Z" style="fill:#0e5095;fill-rule:nonzero;"/><path d="M376.88,372.885c-0.912,0 -1.566,0.21 -1.962,0.63c-0.396,0.42 -0.594,1.086 -0.594,1.998l0,2.016l4.572,0l-0.504,3.312l-4.068,0l0,15.732l-4.608,0l0,-15.732l-3.096,0l0,-3.312l3.096,0l0,-2.088c0,-1.8 0.582,-3.258 1.746,-4.374c1.164,-1.116 2.814,-1.674 4.95,-1.674c1.68,0 3.324,0.372 4.932,1.116l-1.332,3.096c-1.032,-0.48 -2.076,-0.72 -3.132,-0.72Z" style="fill:#0e5095;fill-rule:nonzero;"/><path d="M389.084,376.989c2.808,0 4.998,0.894 6.57,2.682c1.572,1.788 2.358,4.242 2.358,7.362c0,1.992 -0.36,3.75 -1.08,5.274c-0.72,1.524 -1.752,2.706 -3.096,3.546c-1.344,0.84 -2.94,1.26 -4.788,1.26c-2.808,0 -5.004,-0.894 -6.588,-2.682c-1.584,-1.788 -2.376,-4.254 -2.376,-7.398c0,-1.992 0.36,-3.744 1.08,-5.256c0.72,-1.512 1.758,-2.688 3.114,-3.528c1.356,-0.84 2.958,-1.26 4.806,-1.26Zm0,3.492c-2.76,0 -4.14,2.184 -4.14,6.552c0,2.256 0.342,3.918 1.026,4.986c0.684,1.068 1.71,1.602 3.078,1.602c1.368,0 2.394,-0.54 3.078,-1.62c0.684,-1.08 1.026,-2.736 1.026,-4.968c0,-2.232 -0.342,-3.882 -1.026,-4.95c-0.684,-1.068 -1.698,-1.602 -3.042,-1.602Z" style="fill:#0e5095;fill-rule:nonzero;"/><path d="M411.728,377.025c0.696,0 1.332,0.084 1.908,0.252l-0.792,4.464c-0.576,-0.144 -1.14,-0.216 -1.692,-0.216c-1.128,0 -2.016,0.402 -2.664,1.206c-0.648,0.804 -1.164,2.034 -1.548,3.69l0,10.152l-4.608,0l0,-19.044l3.996,0l0.432,3.744c0.456,-1.368 1.116,-2.418 1.98,-3.15c0.864,-0.732 1.86,-1.098 2.988,-1.098Z" style="fill:#0e5095;fill-rule:nonzero;"/><path d="M436.712,376.989c1.536,0 2.76,0.522 3.672,1.566c0.912,1.044 1.368,2.454 1.368,4.23l0,13.788l-4.608,0l0,-13.068c0,-2.04 -0.696,-3.06 -2.088,-3.06c-0.744,0 -1.386,0.234 -1.926,0.702c-0.54,0.468 -1.098,1.194 -1.674,2.178l0,13.248l-4.608,0l0,-13.068c0,-2.04 -0.696,-3.06 -2.088,-3.06c-0.768,0 -1.422,0.234 -1.962,0.702c-0.54,0.468 -1.098,1.194 -1.674,2.178l0,13.248l-4.608,0l0,-19.044l3.996,0l0.36,2.484c1.44,-2.016 3.276,-3.024 5.508,-3.024c1.104,0 2.058,0.282 2.862,0.846c0.804,0.564 1.386,1.35 1.746,2.358c0.768,-1.032 1.614,-1.824 2.538,-2.376c0.924,-0.552 1.986,-0.828 3.186,-0.828Z" style="fill:#0e5095;fill-rule:nonzero;"/><path d="M463.82,372.885c-0.912,0 -1.566,0.21 -1.962,0.63c-0.396,0.42 -0.594,1.086 -0.594,1.998l0,2.016l4.572,0l-0.504,3.312l-4.068,0l0,15.732l-4.608,0l0,-15.732l-3.096,0l0,-3.312l3.096,0l0,-2.088c0,-1.8 0.582,-3.258 1.746,-4.374c1.164,-1.116 2.814,-1.674 4.95,-1.674c1.68,0 3.324,0.372 4.932,1.116l-1.332,3.096c-1.032,-0.48 -2.076,-0.72 -3.132,-0.72Z" style="fill:#0e5095;fill-rule:nonzero;"/><path d="M476.024,376.989c2.808,0 4.998,0.894 6.57,2.682c1.572,1.788 2.358,4.242 2.358,7.362c0,1.992 -0.36,3.75 -1.08,5.274c-0.72,1.524 -1.752,2.706 -3.096,3.546c-1.344,0.84 -2.94,1.26 -4.788,1.26c-2.808,0 -5.004,-0.894 -6.588,-2.682c-1.584,-1.788 -2.376,-4.254 -2.376,-7.398c0,-1.992 0.36,-3.744 1.08,-5.256c0.72,-1.512 1.758,-2.688 3.114,-3.528c1.356,-0.84 2.958,-1.26 4.806,-1.26Zm0,3.492c-2.76,0 -4.14,2.184 -4.14,6.552c0,2.256 0.342,3.918 1.026,4.986c0.684,1.068 1.71,1.602 3.078,1.602c1.368,0 2.394,-0.54 3.078,-1.62c0.684,-1.08 1.026,-2.736 1.026,-4.968c0,-2.232 -0.342,-3.882 -1.026,-4.95c-0.684,-1.068 -1.698,-1.602 -3.042,-1.602Z" style="fill:#0e5095;fill-rule:nonzero;"/><path d="M498.668,377.025c0.696,0 1.332,0.084 1.908,0.252l-0.792,4.464c-0.576,-0.144 -1.14,-0.216 -1.692,-0.216c-1.128,0 -2.016,0.402 -2.664,1.206c-0.648,0.804 -1.164,2.034 -1.548,3.69l0,10.152l-4.608,0l0,-19.044l3.996,0l0.432,3.744c0.456,-1.368 1.116,-2.418 1.98,-3.15c0.864,-0.732 1.86,-1.098 2.988,-1.098Z" style="fill:#0e5095;fill-rule:nonzero;"/><path d="M518.468,376.989c2.568,0 4.824,0.756 6.768,2.268l-1.8,2.7c-1.632,-1.032 -3.228,-1.548 -4.788,-1.548c-0.912,0 -1.62,0.174 -2.124,0.522c-0.504,0.348 -0.756,0.81 -0.756,1.386c0,0.432 0.108,0.792 0.324,1.08c0.216,0.288 0.606,0.558 1.17,0.81c0.564,0.252 1.398,0.534 2.502,0.846c2.064,0.552 3.594,1.284 4.59,2.196c0.996,0.912 1.494,2.184 1.494,3.816c0,1.896 -0.768,3.378 -2.304,4.446c-1.536,1.068 -3.444,1.602 -5.724,1.602c-1.56,0 -2.982,-0.24 -4.266,-0.72c-1.284,-0.48 -2.394,-1.14 -3.33,-1.98l2.304,-2.592c1.656,1.248 3.384,1.872 5.184,1.872c1.032,0 1.854,-0.204 2.466,-0.612c0.612,-0.408 0.918,-0.972 0.918,-1.692c0,-0.552 -0.114,-0.99 -0.342,-1.314c-0.228,-0.324 -0.636,-0.612 -1.224,-0.864c-0.588,-0.252 -1.506,-0.558 -2.754,-0.918c-1.944,-0.528 -3.372,-1.266 -4.284,-2.214c-0.912,-0.948 -1.368,-2.13 -1.368,-3.546c0,-1.056 0.306,-2.004 0.918,-2.844c0.612,-0.84 1.476,-1.5 2.592,-1.98c1.116,-0.48 2.394,-0.72 3.834,-0.72Z" style="fill:#0e5095;fill-rule:nonzero;"/><path d="M540.5,395.673c-0.672,0.48 -1.422,0.84 -2.25,1.08c-0.828,0.24 -1.674,0.36 -2.538,0.36c-1.872,-0.024 -3.294,-0.558 -4.266,-1.602c-0.972,-1.044 -1.458,-2.586 -1.458,-4.626l0,-10.044l-2.988,0l0,-3.312l2.988,0l0,-4.212l4.608,-0.54l0,4.752l4.428,0l-0.468,3.312l-3.96,0l0,9.936c0,0.936 0.162,1.608 0.486,2.016c0.324,0.408 0.834,0.612 1.53,0.612c0.696,0 1.452,-0.228 2.268,-0.684l1.62,2.952Z" style="fill:#0e5095;fill-rule:nonzero;"/><path d="M558.32,396.573l-3.996,0l-0.252,-2.664c-0.696,1.08 -1.518,1.884 -2.466,2.412c-0.948,0.528 -2.07,0.792 -3.366,0.792c-1.704,0 -3.018,-0.522 -3.942,-1.566c-0.924,-1.044 -1.386,-2.49 -1.386,-4.338l0,-13.68l4.608,0l0,13.104c0,1.08 0.186,1.848 0.558,2.304c0.372,0.456 0.966,0.684 1.782,0.684c1.464,0 2.748,-0.9 3.852,-2.7l0,-13.392l4.608,0l0,19.044Z" style="fill:#0e5095;fill-rule:nonzero;"/><path d="M579.884,369.897l0,26.676l-4.068,0l-0.324,-2.412c-0.6,0.912 -1.362,1.632 -2.286,2.16c-0.924,0.528 -1.974,0.792 -3.15,0.792c-2.328,0 -4.116,-0.9 -5.364,-2.7c-1.248,-1.8 -1.872,-4.248 -1.872,-7.344c0,-1.944 0.312,-3.678 0.936,-5.202c0.624,-1.524 1.518,-2.718 2.682,-3.582c1.164,-0.864 2.514,-1.296 4.05,-1.296c1.824,0 3.42,0.684 4.788,2.052l0,-9.648l4.608,0.504Zm-8.532,23.724c0.816,0 1.536,-0.198 2.16,-0.594c0.624,-0.396 1.212,-1.014 1.764,-1.854l0,-8.712c-0.552,-0.672 -1.11,-1.176 -1.674,-1.512c-0.564,-0.336 -1.218,-0.504 -1.962,-0.504c-1.224,0 -2.19,0.546 -2.898,1.638c-0.708,1.092 -1.062,2.742 -1.062,4.95c0,2.352 0.312,4.038 0.936,5.058c0.624,1.02 1.536,1.53 2.736,1.53Z" style="fill:#0e5095;fill-rule:nonzero;"/><path d="M601.052,386.601c0,0.24 -0.036,0.864 -0.108,1.872l-11.952,0c0.144,1.848 0.624,3.168 1.44,3.96c0.816,0.792 1.896,1.188 3.24,1.188c0.84,0 1.632,-0.138 2.376,-0.414c0.744,-0.276 1.536,-0.702 2.376,-1.278l1.908,2.628c-2.112,1.704 -4.464,2.556 -7.056,2.556c-2.904,0 -5.142,-0.888 -6.714,-2.664c-1.572,-1.776 -2.358,-4.2 -2.358,-7.272c0,-1.944 0.336,-3.69 1.008,-5.238c0.672,-1.548 1.644,-2.76 2.916,-3.636c1.272,-0.876 2.784,-1.314 4.536,-1.314c2.664,0 4.728,0.846 6.192,2.538c1.464,1.692 2.196,4.05 2.196,7.074Zm-4.572,-1.332c0,-3.336 -1.236,-5.004 -3.708,-5.004c-1.128,0 -2.01,0.414 -2.646,1.242c-0.636,0.828 -1.014,2.154 -1.134,3.978l7.488,0l0,-0.216Z" style="fill:#0e5095;fill-rule:nonzero;"/><path d="M615.344,376.989c1.704,0 3.03,0.51 3.978,1.53c0.948,1.02 1.422,2.442 1.422,4.266l0,13.788l-4.608,0l0,-13.068c0,-1.128 -0.198,-1.92 -0.594,-2.376c-0.396,-0.456 -0.978,-0.684 -1.746,-0.684c-0.792,0 -1.506,0.246 -2.142,0.738c-0.636,0.492 -1.254,1.206 -1.854,2.142l0,13.248l-4.608,0l0,-19.044l3.996,0l0.36,2.484c1.56,-2.016 3.492,-3.024 5.796,-3.024Z" style="fill:#0e5095;fill-rule:nonzero;"/><path d="M637.016,395.673c-0.672,0.48 -1.422,0.84 -2.25,1.08c-0.828,0.24 -1.674,0.36 -2.538,0.36c-1.872,-0.024 -3.294,-0.558 -4.266,-1.602c-0.972,-1.044 -1.458,-2.586 -1.458,-4.626l0,-10.044l-2.988,0l0,-3.312l2.988,0l0,-4.212l4.608,-0.54l0,4.752l4.428,0l-0.468,3.312l-3.96,0l0,9.936c0,0.936 0.162,1.608 0.486,2.016c0.324,0.408 0.834,0.612 1.53,0.612c0.696,0 1.452,-0.228 2.268,-0.684l1.62,2.952Z" style="fill:#0e5095;fill-rule:nonzero;"/><path d="M656.276,376.989c1.248,0 2.37,0.18 3.366,0.54c0.996,0.36 1.938,0.924 2.826,1.692l-2.052,2.772c-0.648,-0.48 -1.272,-0.828 -1.872,-1.044c-0.6,-0.216 -1.26,-0.324 -1.98,-0.324c-2.856,0 -4.284,2.172 -4.284,6.516c0,2.208 0.372,3.798 1.116,4.77c0.744,0.972 1.8,1.458 3.168,1.458c0.672,0 1.29,-0.108 1.854,-0.324c0.564,-0.216 1.23,-0.564 1.998,-1.044l2.052,2.916c-1.8,1.464 -3.852,2.196 -6.156,2.196c-1.824,0 -3.408,-0.402 -4.752,-1.206c-1.344,-0.804 -2.376,-1.95 -3.096,-3.438c-0.72,-1.488 -1.08,-3.24 -1.08,-5.256c0,-2.016 0.36,-3.798 1.08,-5.346c0.72,-1.548 1.752,-2.748 3.096,-3.6c1.344,-0.852 2.916,-1.278 4.716,-1.278Z" style="fill:#0e5095;fill-rule:nonzero;"/><path d="M672.872,376.989c2.808,0 4.998,0.894 6.57,2.682c1.572,1.788 2.358,4.242 2.358,7.362c0,1.992 -0.36,3.75 -1.08,5.274c-0.72,1.524 -1.752,2.706 -3.096,3.546c-1.344,0.84 -2.94,1.26 -4.788,1.26c-2.808,0 -5.004,-0.894 -6.588,-2.682c-1.584,-1.788 -2.376,-4.254 -2.376,-7.398c0,-1.992 0.36,-3.744 1.08,-5.256c0.72,-1.512 1.758,-2.688 3.114,-3.528c1.356,-0.84 2.958,-1.26 4.806,-1.26Zm0,3.492c-2.76,0 -4.14,2.184 -4.14,6.552c0,2.256 0.342,3.918 1.026,4.986c0.684,1.068 1.71,1.602 3.078,1.602c1.368,0 2.394,-0.54 3.078,-1.62c0.684,-1.08 1.026,-2.736 1.026,-4.968c0,-2.232 -0.342,-3.882 -1.026,-4.95c-0.684,-1.068 -1.698,-1.602 -3.042,-1.602Z" style="fill:#0e5095;fill-rule:nonzero;"/><path d="M690.62,397.113c-1.464,0 -2.61,-0.426 -3.438,-1.278c-0.828,-0.852 -1.242,-2.058 -1.242,-3.618l0,-22.32l4.608,-0.504l0,22.68c0,0.888 0.36,1.332 1.08,1.332c0.36,0 0.72,-0.06 1.08,-0.18l0.972,3.24c-0.96,0.432 -1.98,0.648 -3.06,0.648Z" style="fill:#0e5095;fill-rule:nonzero;"/><path d="M701.24,397.113c-1.464,0 -2.61,-0.426 -3.438,-1.278c-0.828,-0.852 -1.242,-2.058 -1.242,-3.618l0,-22.32l4.608,-0.504l0,22.68c0,0.888 0.36,1.332 1.08,1.332c0.36,0 0.72,-0.06 1.08,-0.18l0.972,3.24c-0.96,0.432 -1.98,0.648 -3.06,0.648Z" style="fill:#0e5095;fill-rule:nonzero;"/><path d="M721.256,391.533c0,0.744 0.114,1.29 0.342,1.638c0.228,0.348 0.594,0.618 1.098,0.81l-0.972,3.06c-1.08,-0.096 -1.962,-0.36 -2.646,-0.792c-0.684,-0.432 -1.206,-1.092 -1.566,-1.98c-0.648,0.96 -1.458,1.674 -2.43,2.142c-0.972,0.468 -2.058,0.702 -3.258,0.702c-1.896,0 -3.396,-0.54 -4.5,-1.62c-1.104,-1.08 -1.656,-2.496 -1.656,-4.248c0,-2.064 0.75,-3.642 2.25,-4.734c1.5,-1.092 3.642,-1.638 6.426,-1.638l2.376,0l0,-1.08c0,-1.224 -0.282,-2.082 -0.846,-2.574c-0.564,-0.492 -1.47,-0.738 -2.718,-0.738c-1.392,0 -3.072,0.336 -5.04,1.008l-1.08,-3.132c2.376,-0.912 4.68,-1.368 6.912,-1.368c4.872,0 7.308,2.184 7.308,6.552l0,7.992Zm-8.208,2.232c1.56,0 2.784,-0.78 3.672,-2.34l0,-3.852l-1.908,0c-2.976,0 -4.464,1.104 -4.464,3.312c0,0.912 0.228,1.62 0.684,2.124c0.456,0.504 1.128,0.756 2.016,0.756Z" style="fill:#0e5095;fill-rule:nonzero;"/><path d="M736.7,376.989c2.208,0 3.936,0.882 5.184,2.646c1.248,1.764 1.872,4.23 1.872,7.398c0,1.968 -0.306,3.714 -0.918,5.238c-0.612,1.524 -1.482,2.712 -2.61,3.564c-1.128,0.852 -2.46,1.278 -3.996,1.278c-1.032,0 -1.974,-0.216 -2.826,-0.648c-0.852,-0.432 -1.59,-1.044 -2.214,-1.836l-0.288,1.944l-4.068,0l0,-26.676l4.608,-0.504l0,10.296c0.624,-0.864 1.386,-1.53 2.286,-1.998c0.9,-0.468 1.89,-0.702 2.97,-0.702Zm-1.728,16.668c1.248,0 2.22,-0.534 2.916,-1.602c0.696,-1.068 1.044,-2.742 1.044,-5.022c0,-2.4 -0.324,-4.098 -0.972,-5.094c-0.648,-0.996 -1.56,-1.494 -2.736,-1.494c-1.464,0 -2.724,0.864 -3.78,2.592l0,8.424c0.408,0.696 0.918,1.236 1.53,1.62c0.612,0.384 1.278,0.576 1.998,0.576Z" style="fill:#0e5095;fill-rule:nonzero;"/><path d="M756.068,376.989c2.808,0 4.998,0.894 6.57,2.682c1.572,1.788 2.358,4.242 2.358,7.362c0,1.992 -0.36,3.75 -1.08,5.274c-0.72,1.524 -1.752,2.706 -3.096,3.546c-1.344,0.84 -2.94,1.26 -4.788,1.26c-2.808,0 -5.004,-0.894 -6.588,-2.682c-1.584,-1.788 -2.376,-4.254 -2.376,-7.398c0,-1.992 0.36,-3.744 1.08,-5.256c0.72,-1.512 1.758,-2.688 3.114,-3.528c1.356,-0.84 2.958,-1.26 4.806,-1.26Zm0,3.492c-2.76,0 -4.14,2.184 -4.14,6.552c0,2.256 0.342,3.918 1.026,4.986c0.684,1.068 1.71,1.602 3.078,1.602c1.368,0 2.394,-0.54 3.078,-1.62c0.684,-1.08 1.026,-2.736 1.026,-4.968c0,-2.232 -0.342,-3.882 -1.026,-4.95c-0.684,-1.068 -1.698,-1.602 -3.042,-1.602Z" style="fill:#0e5095;fill-rule:nonzero;"/><path d="M778.712,377.025c0.696,0 1.332,0.084 1.908,0.252l-0.792,4.464c-0.576,-0.144 -1.14,-0.216 -1.692,-0.216c-1.128,0 -2.016,0.402 -2.664,1.206c-0.648,0.804 -1.164,2.034 -1.548,3.69l0,10.152l-4.608,0l0,-19.044l3.996,0l0.432,3.744c0.456,-1.368 1.116,-2.418 1.98,-3.15c0.864,-0.732 1.86,-1.098 2.988,-1.098Z" style="fill:#0e5095;fill-rule:nonzero;"/><path d="M796.316,391.533c0,0.744 0.114,1.29 0.342,1.638c0.228,0.348 0.594,0.618 1.098,0.81l-0.972,3.06c-1.08,-0.096 -1.962,-0.36 -2.646,-0.792c-0.684,-0.432 -1.206,-1.092 -1.566,-1.98c-0.648,0.96 -1.458,1.674 -2.43,2.142c-0.972,0.468 -2.058,0.702 -3.258,0.702c-1.896,0 -3.396,-0.54 -4.5,-1.62c-1.104,-1.08 -1.656,-2.496 -1.656,-4.248c0,-2.064 0.75,-3.642 2.25,-4.734c1.5,-1.092 3.642,-1.638 6.426,-1.638l2.376,0l0,-1.08c0,-1.224 -0.282,-2.082 -0.846,-2.574c-0.564,-0.492 -1.47,-0.738 -2.718,-0.738c-1.392,0 -3.072,0.336 -5.04,1.008l-1.08,-3.132c2.376,-0.912 4.68,-1.368 6.912,-1.368c4.872,0 7.308,2.184 7.308,6.552l0,7.992Zm-8.208,2.232c1.56,0 2.784,-0.78 3.672,-2.34l0,-3.852l-1.908,0c-2.976,0 -4.464,1.104 -4.464,3.312c0,0.912 0.228,1.62 0.684,2.124c0.456,0.504 1.128,0.756 2.016,0.756Z" style="fill:#0e5095;fill-rule:nonzero;"/><path d="M812.804,395.673c-0.672,0.48 -1.422,0.84 -2.25,1.08c-0.828,0.24 -1.674,0.36 -2.538,0.36c-1.872,-0.024 -3.294,-0.558 -4.266,-1.602c-0.972,-1.044 -1.458,-2.586 -1.458,-4.626l0,-10.044l-2.988,0l0,-3.312l2.988,0l0,-4.212l4.608,-0.54l0,4.752l4.428,0l-0.468,3.312l-3.96,0l0,9.936c0,0.936 0.162,1.608 0.486,2.016c0.324,0.408 0.834,0.612 1.53,0.612c0.696,0 1.452,-0.228 2.268,-0.684l1.62,2.952Z" style="fill:#0e5095;fill-rule:nonzero;"/><path d="M820.004,377.529l0,19.044l-4.608,0l0,-19.044l4.608,0Zm-2.34,-9.648c0.864,0 1.566,0.27 2.106,0.81c0.54,0.54 0.81,1.206 0.81,1.998c0,0.792 -0.27,1.452 -0.81,1.98c-0.54,0.528 -1.242,0.792 -2.106,0.792c-0.84,0 -1.53,-0.264 -2.07,-0.792c-0.54,-0.528 -0.81,-1.188 -0.81,-1.98c0,-0.792 0.27,-1.458 0.81,-1.998c0.54,-0.54 1.23,-0.81 2.07,-0.81Z" style="fill:#0e5095;fill-rule:nonzero;"/><path d="M833.324,376.989c2.808,0 4.998,0.894 6.57,2.682c1.572,1.788 2.358,4.242 2.358,7.362c0,1.992 -0.36,3.75 -1.08,5.274c-0.72,1.524 -1.752,2.706 -3.096,3.546c-1.344,0.84 -2.94,1.26 -4.788,1.26c-2.808,0 -5.004,-0.894 -6.588,-2.682c-1.584,-1.788 -2.376,-4.254 -2.376,-7.398c0,-1.992 0.36,-3.744 1.08,-5.256c0.72,-1.512 1.758,-2.688 3.114,-3.528c1.356,-0.84 2.958,-1.26 4.806,-1.26Zm0,3.492c-2.76,0 -4.14,2.184 -4.14,6.552c0,2.256 0.342,3.918 1.026,4.986c0.684,1.068 1.71,1.602 3.078,1.602c1.368,0 2.394,-0.54 3.078,-1.62c0.684,-1.08 1.026,-2.736 1.026,-4.968c0,-2.232 -0.342,-3.882 -1.026,-4.95c-0.684,-1.068 -1.698,-1.602 -3.042,-1.602Z" style="fill:#0e5095;fill-rule:nonzero;"/><path d="M856.724,376.989c1.704,0 3.03,0.51 3.978,1.53c0.948,1.02 1.422,2.442 1.422,4.266l0,13.788l-4.608,0l0,-13.068c0,-1.128 -0.198,-1.92 -0.594,-2.376c-0.396,-0.456 -0.978,-0.684 -1.746,-0.684c-0.792,0 -1.506,0.246 -2.142,0.738c-0.636,0.492 -1.254,1.206 -1.854,2.142l0,13.248l-4.608,0l0,-19.044l3.996,0l0.36,2.484c1.56,-2.016 3.492,-3.024 5.796,-3.024Z" style="fill:#0e5095;fill-rule:nonzero;"/></g></g></svg>