<?xml version="1.0" encoding="utf-8"?>
<!-- Generator: Adobe Illustrator 21.1.0, SVG Export Plug-In . SVG Version: 6.00 Build 0)  -->
<svg version="1.1" id="Calque_1" xmlns="http://www.w3.org/2000/svg" xmlns:xlink="http://www.w3.org/1999/xlink" x="0px" y="0px"
	 viewBox="0 0 500 500" style="enable-background:new 0 0 500 500;" xml:space="preserve">
<g>
	<g>
		<path d="M308.5,104.2c-3.4-19.4-26.1-27-43.1-29.5c-19.7-2.8-40,0.4-58.4,8c-39.6,16.3-66.5,51.2-81.2,90.5
			c-7.7,20.8-12.4,42.8-14.2,64.8c-2,23.5-0.1,48,8.8,70.1c7.4,18.3,19.3,35,35.7,46.3c18.2,12.7,40.6,17.1,62.3,17.6
			c56,1.3,111.1-17.5,162.6-37.5c3.6-1.4,2-7.2-1.6-5.8c-43.3,16.8-88,32-134.5,36.2c-21.5,1.9-43.8,1.9-64.5-5
			c-19.1-6.4-34.8-19.5-45.5-36.5c-23.4-37-21-84.5-10.6-125.3c9.8-38.8,30.2-76.8,64.5-99.1c18-11.7,39.1-19,60.6-19.3
			c17.9-0.3,49.4,4.2,53.2,26.1C303.4,109.6,309.2,108,308.5,104.2L308.5,104.2z"/>
	</g>
</g>
<g>
	<g>
		<path d="M277.7,148.3c-23.4,6-45.4,16.7-64.5,31.5c-9.3,7.2-18.7,15.4-25.7,25c-2.6,3.6-6.3,8.9-4.8,13.6c1.4,4.4,6.1,6.5,10,8.1
			c11.4,4.7,23.8,5.9,36,7.1c15.1,1.5,30.1,3.3,45,5.5c6.6,1,13.2,1.8,19.8,3.1c2.9,0.6,5.8,1.2,8.4,2.7c6.1,3.4,4.7,9.1,0.9,13.6
			c-8.1,9.5-19.6,17.2-29.8,24.2c-23.9,16.4-50.2,29.2-76.8,40.6c-3.5,1.5-0.5,6.7,3,5.2c23.5-10,46.6-21.1,68.2-34.8
			c10.5-6.7,20.5-14,30-21.9c6.7-5.6,18.7-14.9,14.3-25.3c-4.6-10.8-21.7-10.9-31.4-12.4c-13.9-2.1-27.9-3.9-41.9-5.4
			c-13.4-1.4-27.2-2-40-6.3c-2.6-0.9-6.7-2-8.7-4.1c-2.7-3,1.1-7.7,3-10.2c3.8-5.2,8.7-9.9,13.4-14.3c20.6-19,45.9-32.6,73.1-39.5
			C283,153.1,281.5,147.3,277.7,148.3L277.7,148.3z"/>
	</g>
</g>
</svg>
