<?xml version="1.0" encoding="UTF-8" standalone="no"?><!DOCTYPE svg PUBLIC "-//W3C//DTD SVG 1.1//EN" "http://www.w3.org/Graphics/SVG/1.1/DTD/svg11.dtd"><svg width="100%" height="100%" viewBox="0 0 1000 219" version="1.1" xmlns="http://www.w3.org/2000/svg" xmlns:xlink="http://www.w3.org/1999/xlink" xml:space="preserve" xmlns:serif="http://www.serif.com/" style="fill-rule:evenodd;clip-rule:evenodd;stroke-linejoin:round;stroke-miterlimit:1.41421;"><rect id="Artboard3" x="0" y="0" width="1000" height="218.66" style="fill:none;"/><path d="M666.007,46.044c0,-2.244 -1.821,-4.066 -4.065,-4.066l-323.884,0c-2.244,0 -4.065,1.822 -4.065,4.066l0,93.501c0,2.243 1.821,4.065 4.065,4.065l323.884,0c2.244,0 4.065,-1.822 4.065,-4.065l0,-93.501Z" style="fill:#0091ea;fill-opacity:0.505882;"/><path d="M662.078,40.751c2.693,0.102 5.05,2.352 5.157,5.157c0.393,31.212 0.001,62.429 0.001,93.644c-0.034,2.745 -2.352,5.179 -5.158,5.285c-108,1.375 -216.019,0.002 -324.028,0.002c-2.747,-0.035 -5.178,-2.35 -5.285,-5.158c-0.393,-31.213 -0.001,-62.43 -0.001,-93.645c0.034,-2.741 2.351,-5.179 5.158,-5.285c108.043,-1.373 216.113,-1.372 324.156,0Zm-324.012,2.456c-1.487,0.019 -2.787,1.275 -2.843,2.763c-0.393,31.214 -0.393,62.435 0,93.648c0.055,1.455 1.302,2.706 2.761,2.762c108.002,1.376 216.03,1.374 324.032,0c1.452,-0.056 2.706,-1.302 2.761,-2.762c0.393,-31.213 0.393,-62.434 0,-93.648c-0.055,-1.455 -1.302,-2.706 -2.761,-2.761c-107.975,-1.371 -215.967,-0.002 -323.95,-0.002Z" style="fill:#008cff;fill-opacity:0.8;fill-rule:nonzero;"/><g><path d="M452.93,84.795c1.5,0 2.805,0.215 3.915,0.645c1.11,0.43 2.135,1.085 3.075,1.965l-2.1,2.43c-0.74,-0.6 -1.48,-1.04 -2.22,-1.32c-0.74,-0.28 -1.53,-0.42 -2.37,-0.42c-0.92,0 -1.655,0.195 -2.205,0.585c-0.55,0.39 -0.825,0.945 -0.825,1.665c0,0.5 0.115,0.91 0.345,1.23c0.23,0.32 0.635,0.62 1.215,0.9c0.58,0.28 1.45,0.6 2.61,0.96c2.06,0.66 3.6,1.475 4.62,2.445c1.02,0.97 1.53,2.355 1.53,4.155c0,1.28 -0.32,2.405 -0.96,3.375c-0.64,0.97 -1.57,1.73 -2.79,2.28c-1.22,0.55 -2.65,0.825 -4.29,0.825c-1.64,0 -3.1,-0.26 -4.38,-0.78c-1.28,-0.52 -2.38,-1.23 -3.3,-2.13l2.25,-2.49c0.8,0.68 1.63,1.195 2.49,1.545c0.86,0.35 1.8,0.525 2.82,0.525c1.08,0 1.945,-0.25 2.595,-0.75c0.65,-0.5 0.975,-1.2 0.975,-2.1c0,-0.56 -0.115,-1.025 -0.345,-1.395c-0.23,-0.37 -0.625,-0.705 -1.185,-1.005c-0.56,-0.3 -1.37,-0.61 -2.43,-0.93c-2.26,-0.7 -3.875,-1.54 -4.845,-2.52c-0.97,-0.98 -1.455,-2.26 -1.455,-3.84c0,-1.16 0.31,-2.185 0.93,-3.075c0.62,-0.89 1.48,-1.575 2.58,-2.055c1.1,-0.48 2.35,-0.72 3.75,-0.72Z" style="fill:#0e5095;fill-rule:nonzero;"/><rect x="463.55" y="85.275" width="4.41" height="20.76" style="fill:#0e5095;fill-rule:nonzero;"/><path d="M481.04,84.795c1.4,0 2.645,0.215 3.735,0.645c1.09,0.43 2.105,1.045 3.045,1.845l-2.31,2.4c-0.74,-0.56 -1.435,-0.97 -2.085,-1.23c-0.65,-0.26 -1.385,-0.39 -2.205,-0.39c-1.58,0 -2.855,0.625 -3.825,1.875c-0.97,1.25 -1.455,3.155 -1.455,5.715c0,2.7 0.375,4.635 1.125,5.805c0.75,1.17 1.915,1.755 3.495,1.755c1.14,0 2.17,-0.25 3.09,-0.75l0,-5.07l-2.91,0l-0.45,-3.21l7.65,0l0,10.23c-1.08,0.66 -2.245,1.175 -3.495,1.545c-1.25,0.37 -2.515,0.555 -3.795,0.555c-3.06,0 -5.38,-0.92 -6.96,-2.76c-1.58,-1.84 -2.37,-4.55 -2.37,-8.13c0,-2.26 0.43,-4.21 1.29,-5.85c0.86,-1.64 2.025,-2.88 3.495,-3.72c1.47,-0.84 3.115,-1.26 4.935,-1.26Z" style="fill:#0e5095;fill-rule:nonzero;"/><path d="M507.26,106.035l-5.67,0l-6.6,-16.47c0.18,1.42 0.325,2.755 0.435,4.005c0.11,1.25 0.165,2.715 0.165,4.395l0,8.07l-3.99,0l0,-20.76l5.55,0l6.72,16.5c-0.4,-2.68 -0.6,-5.14 -0.6,-7.38l0,-9.12l3.99,0l0,20.76Z" style="fill:#0e5095;fill-rule:nonzero;"/><path d="M534.47,99.195c0,1.42 -0.3,2.68 -0.9,3.78c-0.6,1.1 -1.495,1.965 -2.685,2.595c-1.19,0.63 -2.635,0.945 -4.335,0.945c-2.56,0 -4.515,-0.665 -5.865,-1.995c-1.35,-1.33 -2.025,-3.105 -2.025,-5.325l0,-13.92l4.41,0l0,13.71c0,1.4 0.28,2.445 0.84,3.135c0.56,0.69 1.44,1.035 2.64,1.035c1.2,0 2.085,-0.345 2.655,-1.035c0.57,-0.69 0.855,-1.735 0.855,-3.135l0,-13.71l4.41,0l0,13.92Z" style="fill:#0e5095;fill-rule:nonzero;"/><path d="M545,85.275c2.7,0 4.795,0.56 6.285,1.68c1.49,1.12 2.235,2.79 2.235,5.01c0,2.32 -0.74,4.065 -2.22,5.235c-1.48,1.17 -3.46,1.755 -5.94,1.755l-2.37,0l0,7.08l-4.41,0l0,-20.76l6.42,0Zm0,10.44c1.28,0 2.26,-0.29 2.94,-0.87c0.68,-0.58 1.02,-1.54 1.02,-2.88c0,-2.34 -1.34,-3.51 -4.02,-3.51l-1.95,0l0,7.26l2.01,0Z" style="fill:#0e5095;fill-rule:nonzero;"/><path d="M282.515,192.345c0,0.64 0.11,1.115 0.33,1.425c0.22,0.31 0.55,0.545 0.99,0.705l-0.63,1.92c-0.82,-0.1 -1.48,-0.33 -1.98,-0.69c-0.5,-0.36 -0.87,-0.92 -1.11,-1.68c-1.06,1.58 -2.63,2.37 -4.71,2.37c-1.56,0 -2.79,-0.44 -3.69,-1.32c-0.9,-0.88 -1.35,-2.03 -1.35,-3.45c0,-1.68 0.605,-2.97 1.815,-3.87c1.21,-0.9 2.925,-1.35 5.145,-1.35l2.43,0l0,-1.17c0,-1.12 -0.27,-1.92 -0.81,-2.4c-0.54,-0.48 -1.37,-0.72 -2.49,-0.72c-1.16,0 -2.58,0.28 -4.26,0.84l-0.69,-2.01c1.96,-0.72 3.78,-1.08 5.46,-1.08c1.86,0 3.25,0.455 4.17,1.365c0.92,0.91 1.38,2.205 1.38,3.885l0,7.23Zm-6.48,1.98c1.58,0 2.82,-0.82 3.72,-2.46l0,-3.63l-2.07,0c-2.92,0 -4.38,1.08 -4.38,3.24c0,0.94 0.23,1.65 0.69,2.13c0.46,0.48 1.14,0.72 2.04,0.72Z" style="fill:#0e5095;fill-rule:nonzero;"/><path d="M295.625,179.865c1.44,0 2.565,0.43 3.375,1.29c0.81,0.86 1.215,2.04 1.215,3.54l0,11.34l-2.76,0l0,-10.95c0,-1.12 -0.21,-1.91 -0.63,-2.37c-0.42,-0.46 -1.04,-0.69 -1.86,-0.69c-0.84,0 -1.58,0.24 -2.22,0.72c-0.64,0.48 -1.24,1.17 -1.8,2.07l0,11.22l-2.76,0l0,-15.81l2.37,0l0.24,2.34c0.56,-0.84 1.255,-1.5 2.085,-1.98c0.83,-0.48 1.745,-0.72 2.745,-0.72Z" style="fill:#0e5095;fill-rule:nonzero;"/><path d="M318.005,173.865l0,22.17l-2.43,0l-0.27,-2.19c-0.52,0.8 -1.17,1.425 -1.95,1.875c-0.78,0.45 -1.65,0.675 -2.61,0.675c-1.88,0 -3.345,-0.74 -4.395,-2.22c-1.05,-1.48 -1.575,-3.47 -1.575,-5.97c0,-1.62 0.25,-3.06 0.75,-4.32c0.5,-1.26 1.22,-2.245 2.16,-2.955c0.94,-0.71 2.04,-1.065 3.3,-1.065c1.62,0 3.04,0.65 4.26,1.95l0,-8.28l2.76,0.33Zm-6.66,20.34c0.84,0 1.56,-0.195 2.16,-0.585c0.6,-0.39 1.18,-0.975 1.74,-1.755l0,-7.74c-0.52,-0.68 -1.075,-1.195 -1.665,-1.545c-0.59,-0.35 -1.255,-0.525 -1.995,-0.525c-1.22,0 -2.165,0.51 -2.835,1.53c-0.67,1.02 -1.005,2.54 -1.005,4.56c0,2.04 0.31,3.56 0.93,4.56c0.62,1 1.51,1.5 2.67,1.5Z" style="fill:#0e5095;fill-rule:nonzero;"/><path d="M344.405,180.945c-0.6,0.2 -1.26,0.33 -1.98,0.39c-0.72,0.06 -1.6,0.09 -2.64,0.09c1.86,0.84 2.79,2.17 2.79,3.99c0,1.58 -0.54,2.87 -1.62,3.87c-1.08,1 -2.55,1.5 -4.41,1.5c-0.72,0 -1.39,-0.1 -2.01,-0.3c-0.24,0.16 -0.43,0.375 -0.57,0.645c-0.14,0.27 -0.21,0.545 -0.21,0.825c0,0.86 0.69,1.29 2.07,1.29l2.52,0c1.06,0 2,0.19 2.82,0.57c0.82,0.38 1.455,0.9 1.905,1.56c0.45,0.66 0.675,1.41 0.675,2.25c0,1.54 -0.63,2.725 -1.89,3.555c-1.26,0.83 -3.1,1.245 -5.52,1.245c-1.7,0 -3.045,-0.175 -4.035,-0.525c-0.99,-0.35 -1.695,-0.875 -2.115,-1.575c-0.42,-0.7 -0.63,-1.6 -0.63,-2.7l2.49,0c0,0.64 0.12,1.145 0.36,1.515c0.24,0.37 0.67,0.65 1.29,0.84c0.62,0.19 1.5,0.285 2.64,0.285c1.66,0 2.845,-0.205 3.555,-0.615c0.71,-0.41 1.065,-1.025 1.065,-1.845c0,-0.74 -0.28,-1.3 -0.84,-1.68c-0.56,-0.38 -1.34,-0.57 -2.34,-0.57l-2.49,0c-1.34,0 -2.355,-0.285 -3.045,-0.855c-0.69,-0.57 -1.035,-1.285 -1.035,-2.145c0,-0.52 0.15,-1.02 0.45,-1.5c0.3,-0.48 0.73,-0.91 1.29,-1.29c-0.92,-0.48 -1.595,-1.075 -2.025,-1.785c-0.43,-0.71 -0.645,-1.575 -0.645,-2.595c0,-1.06 0.265,-2.01 0.795,-2.85c0.53,-0.84 1.26,-1.495 2.19,-1.965c0.93,-0.47 1.965,-0.705 3.105,-0.705c1.24,0.02 2.28,-0.025 3.12,-0.135c0.84,-0.11 1.535,-0.26 2.085,-0.45c0.55,-0.19 1.225,-0.465 2.025,-0.825l0.81,2.49Zm-8.04,0.9c-1.04,0 -1.845,0.325 -2.415,0.975c-0.57,0.65 -0.855,1.505 -0.855,2.565c0,1.08 0.29,1.945 0.87,2.595c0.58,0.65 1.4,0.975 2.46,0.975c1.08,0 1.905,-0.315 2.475,-0.945c0.57,-0.63 0.855,-1.515 0.855,-2.655c0,-2.34 -1.13,-3.51 -3.39,-3.51Z" style="fill:#0e5095;fill-rule:nonzero;"/><path d="M358.715,187.665c0,0.46 -0.02,0.93 -0.06,1.41l-10.08,0c0.12,1.74 0.56,3.02 1.32,3.84c0.76,0.82 1.74,1.23 2.94,1.23c0.76,0 1.46,-0.11 2.1,-0.33c0.64,-0.22 1.31,-0.57 2.01,-1.05l1.2,1.65c-1.68,1.32 -3.52,1.98 -5.52,1.98c-2.2,0 -3.915,-0.72 -5.145,-2.16c-1.23,-1.44 -1.845,-3.42 -1.845,-5.94c0,-1.64 0.265,-3.095 0.795,-4.365c0.53,-1.27 1.29,-2.265 2.28,-2.985c0.99,-0.72 2.155,-1.08 3.495,-1.08c2.1,0 3.71,0.69 4.83,2.07c1.12,1.38 1.68,3.29 1.68,5.73Zm-2.73,-0.81c0,-1.56 -0.31,-2.75 -0.93,-3.57c-0.62,-0.82 -1.55,-1.23 -2.79,-1.23c-2.26,0 -3.49,1.66 -3.69,4.98l7.41,0l0,-0.18Z" style="fill:#0e5095;fill-rule:nonzero;"/><path d="M371.105,195.315c-1.04,0.72 -2.22,1.08 -3.54,1.08c-1.34,0 -2.385,-0.385 -3.135,-1.155c-0.75,-0.77 -1.125,-1.885 -1.125,-3.345l0,-9.54l-2.76,0l0,-2.13l2.76,0l0,-3.57l2.76,-0.33l0,3.9l3.75,0l-0.3,2.13l-3.45,0l0,9.42c0,0.82 0.145,1.415 0.435,1.785c0.29,0.37 0.775,0.555 1.455,0.555c0.62,0 1.32,-0.21 2.1,-0.63l1.05,1.83Z" style="fill:#0e5095;fill-rule:nonzero;"/><path d="M386.195,179.865c1.08,0 2.05,0.15 2.91,0.45c0.86,0.3 1.68,0.75 2.46,1.35l-1.17,1.74c-0.72,-0.46 -1.405,-0.8 -2.055,-1.02c-0.65,-0.22 -1.335,-0.33 -2.055,-0.33c-0.9,0 -1.61,0.185 -2.13,0.555c-0.52,0.37 -0.78,0.875 -0.78,1.515c0,0.64 0.245,1.14 0.735,1.5c0.49,0.36 1.375,0.71 2.655,1.05c1.76,0.44 3.075,1.04 3.945,1.8c0.87,0.76 1.305,1.8 1.305,3.12c0,1.56 -0.605,2.75 -1.815,3.57c-1.21,0.82 -2.685,1.23 -4.425,1.23c-2.4,0 -4.39,-0.69 -5.97,-2.07l1.47,-1.68c1.34,1.02 2.82,1.53 4.44,1.53c1.04,0 1.865,-0.215 2.475,-0.645c0.61,-0.43 0.915,-1.015 0.915,-1.755c0,-0.54 -0.11,-0.975 -0.33,-1.305c-0.22,-0.33 -0.6,-0.62 -1.14,-0.87c-0.54,-0.25 -1.33,-0.515 -2.37,-0.795c-1.68,-0.44 -2.895,-1.03 -3.645,-1.77c-0.75,-0.74 -1.125,-1.68 -1.125,-2.82c0,-0.82 0.245,-1.565 0.735,-2.235c0.49,-0.67 1.17,-1.19 2.04,-1.56c0.87,-0.37 1.845,-0.555 2.925,-0.555Z" style="fill:#0e5095;fill-rule:nonzero;"/><path d="M403.895,195.315c-1.04,0.72 -2.22,1.08 -3.54,1.08c-1.34,0 -2.385,-0.385 -3.135,-1.155c-0.75,-0.77 -1.125,-1.885 -1.125,-3.345l0,-9.54l-2.76,0l0,-2.13l2.76,0l0,-3.57l2.76,-0.33l0,3.9l3.75,0l-0.3,2.13l-3.45,0l0,9.42c0,0.82 0.145,1.415 0.435,1.785c0.29,0.37 0.775,0.555 1.455,0.555c0.62,0 1.32,-0.21 2.1,-0.63l1.05,1.83Z" style="fill:#0e5095;fill-rule:nonzero;"/><path d="M417.185,192.345c0,0.64 0.11,1.115 0.33,1.425c0.22,0.31 0.55,0.545 0.99,0.705l-0.63,1.92c-0.82,-0.1 -1.48,-0.33 -1.98,-0.69c-0.5,-0.36 -0.87,-0.92 -1.11,-1.68c-1.06,1.58 -2.63,2.37 -4.71,2.37c-1.56,0 -2.79,-0.44 -3.69,-1.32c-0.9,-0.88 -1.35,-2.03 -1.35,-3.45c0,-1.68 0.605,-2.97 1.815,-3.87c1.21,-0.9 2.925,-1.35 5.145,-1.35l2.43,0l0,-1.17c0,-1.12 -0.27,-1.92 -0.81,-2.4c-0.54,-0.48 -1.37,-0.72 -2.49,-0.72c-1.16,0 -2.58,0.28 -4.26,0.84l-0.69,-2.01c1.96,-0.72 3.78,-1.08 5.46,-1.08c1.86,0 3.25,0.455 4.17,1.365c0.92,0.91 1.38,2.205 1.38,3.885l0,7.23Zm-6.48,1.98c1.58,0 2.82,-0.82 3.72,-2.46l0,-3.63l-2.07,0c-2.92,0 -4.38,1.08 -4.38,3.24c0,0.94 0.23,1.65 0.69,2.13c0.46,0.48 1.14,0.72 2.04,0.72Z" style="fill:#0e5095;fill-rule:nonzero;"/><path d="M429.725,179.865c0.56,0 1.08,0.06 1.56,0.18l-0.51,2.7c-0.48,-0.12 -0.94,-0.18 -1.38,-0.18c-0.98,0 -1.77,0.36 -2.37,1.08c-0.6,0.72 -1.07,1.84 -1.41,3.36l0,9.03l-2.76,0l0,-15.81l2.37,0l0.27,3.21c0.42,-1.18 0.99,-2.07 1.71,-2.67c0.72,-0.6 1.56,-0.9 2.52,-0.9Z" style="fill:#0e5095;fill-rule:nonzero;"/><path d="M442.415,195.315c-1.04,0.72 -2.22,1.08 -3.54,1.08c-1.34,0 -2.385,-0.385 -3.135,-1.155c-0.75,-0.77 -1.125,-1.885 -1.125,-3.345l0,-9.54l-2.76,0l0,-2.13l2.76,0l0,-3.57l2.76,-0.33l0,3.9l3.75,0l-0.3,2.13l-3.45,0l0,9.42c0,0.82 0.145,1.415 0.435,1.785c0.29,0.37 0.775,0.555 1.455,0.555c0.62,0 1.32,-0.21 2.1,-0.63l1.05,1.83Z" style="fill:#0e5095;fill-rule:nonzero;"/><path d="M456.755,187.665c0,0.46 -0.02,0.93 -0.06,1.41l-10.08,0c0.12,1.74 0.56,3.02 1.32,3.84c0.76,0.82 1.74,1.23 2.94,1.23c0.76,0 1.46,-0.11 2.1,-0.33c0.64,-0.22 1.31,-0.57 2.01,-1.05l1.2,1.65c-1.68,1.32 -3.52,1.98 -5.52,1.98c-2.2,0 -3.915,-0.72 -5.145,-2.16c-1.23,-1.44 -1.845,-3.42 -1.845,-5.94c0,-1.64 0.265,-3.095 0.795,-4.365c0.53,-1.27 1.29,-2.265 2.28,-2.985c0.99,-0.72 2.155,-1.08 3.495,-1.08c2.1,0 3.71,0.69 4.83,2.07c1.12,1.38 1.68,3.29 1.68,5.73Zm-2.73,-0.81c0,-1.56 -0.31,-2.75 -0.93,-3.57c-0.62,-0.82 -1.55,-1.23 -2.79,-1.23c-2.26,0 -3.49,1.66 -3.69,4.98l7.41,0l0,-0.18Z" style="fill:#0e5095;fill-rule:nonzero;"/><path d="M473.405,173.865l0,22.17l-2.43,0l-0.27,-2.19c-0.52,0.8 -1.17,1.425 -1.95,1.875c-0.78,0.45 -1.65,0.675 -2.61,0.675c-1.88,0 -3.345,-0.74 -4.395,-2.22c-1.05,-1.48 -1.575,-3.47 -1.575,-5.97c0,-1.62 0.25,-3.06 0.75,-4.32c0.5,-1.26 1.22,-2.245 2.16,-2.955c0.94,-0.71 2.04,-1.065 3.3,-1.065c1.62,0 3.04,0.65 4.26,1.95l0,-8.28l2.76,0.33Zm-6.66,20.34c0.84,0 1.56,-0.195 2.16,-0.585c0.6,-0.39 1.18,-0.975 1.74,-1.755l0,-7.74c-0.52,-0.68 -1.075,-1.195 -1.665,-1.545c-0.59,-0.35 -1.255,-0.525 -1.995,-0.525c-1.22,0 -2.165,0.51 -2.835,1.53c-0.67,1.02 -1.005,2.54 -1.005,4.56c0,2.04 0.31,3.56 0.93,4.56c0.62,1 1.51,1.5 2.67,1.5Z" style="fill:#0e5095;fill-rule:nonzero;"/><path d="M505.115,180.225l-3.6,15.81l-3.75,0l-2.76,-13.32l-2.85,13.32l-3.66,0l-3.69,-15.81l2.76,0l2.85,13.89l3.12,-13.89l3.09,0l2.97,13.89l2.88,-13.89l2.64,0Z" style="fill:#0e5095;fill-rule:nonzero;"/><path d="M511.325,180.225l0,15.81l-2.76,0l0,-15.81l2.76,0Zm-1.41,-7.59c0.58,0 1.05,0.18 1.41,0.54c0.36,0.36 0.54,0.81 0.54,1.35c0,0.54 -0.18,0.985 -0.54,1.335c-0.36,0.35 -0.83,0.525 -1.41,0.525c-0.56,0 -1.02,-0.175 -1.38,-0.525c-0.36,-0.35 -0.54,-0.795 -0.54,-1.335c0,-0.54 0.18,-0.99 0.54,-1.35c0.36,-0.36 0.82,-0.54 1.38,-0.54Z" style="fill:#0e5095;fill-rule:nonzero;"/><path d="M525.005,195.315c-1.04,0.72 -2.22,1.08 -3.54,1.08c-1.34,0 -2.385,-0.385 -3.135,-1.155c-0.75,-0.77 -1.125,-1.885 -1.125,-3.345l0,-9.54l-2.76,0l0,-2.13l2.76,0l0,-3.57l2.76,-0.33l0,3.9l3.75,0l-0.3,2.13l-3.45,0l0,9.42c0,0.82 0.145,1.415 0.435,1.785c0.29,0.37 0.775,0.555 1.455,0.555c0.62,0 1.32,-0.21 2.1,-0.63l1.05,1.83Z" style="fill:#0e5095;fill-rule:nonzero;"/><path d="M535.295,179.865c1.44,0 2.565,0.43 3.375,1.29c0.81,0.86 1.215,2.04 1.215,3.54l0,11.34l-2.76,0l0,-10.95c0,-1.12 -0.215,-1.91 -0.645,-2.37c-0.43,-0.46 -1.055,-0.69 -1.875,-0.69c-0.82,0 -1.55,0.24 -2.19,0.72c-0.64,0.48 -1.24,1.16 -1.8,2.04l0,11.25l-2.76,0l0,-22.14l2.76,-0.3l0,8.82c1.24,-1.7 2.8,-2.55 4.68,-2.55Z" style="fill:#0e5095;fill-rule:nonzero;"/><path d="M559.715,196.125c-0.62,1.84 -1.485,3.295 -2.595,4.365c-1.11,1.07 -2.695,1.715 -4.755,1.935l-0.3,-2.16c1.04,-0.18 1.87,-0.44 2.49,-0.78c0.62,-0.34 1.115,-0.775 1.485,-1.305c0.37,-0.53 0.715,-1.245 1.035,-2.145l-0.93,0l-5.31,-15.81l2.94,0l4.23,13.8l4.14,-13.8l2.85,0l-5.28,15.9Z" style="fill:#0e5095;fill-rule:nonzero;"/><path d="M573.965,179.865c2.22,0 3.945,0.74 5.175,2.22c1.23,1.48 1.845,3.49 1.845,6.03c0,1.64 -0.28,3.085 -0.84,4.335c-0.56,1.25 -1.37,2.22 -2.43,2.91c-1.06,0.69 -2.32,1.035 -3.78,1.035c-2.22,0 -3.95,-0.74 -5.19,-2.22c-1.24,-1.48 -1.86,-3.49 -1.86,-6.03c0,-1.64 0.28,-3.085 0.84,-4.335c0.56,-1.25 1.37,-2.22 2.43,-2.91c1.06,-0.69 2.33,-1.035 3.81,-1.035Zm0,2.22c-2.74,0 -4.11,2.02 -4.11,6.06c0,4.02 1.36,6.03 4.08,6.03c2.72,0 4.08,-2.02 4.08,-6.06c0,-4.02 -1.35,-6.03 -4.05,-6.03Z" style="fill:#0e5095;fill-rule:nonzero;"/><path d="M597.305,196.035l-2.37,0l-0.21,-2.46c-0.6,0.98 -1.29,1.695 -2.07,2.145c-0.78,0.45 -1.73,0.675 -2.85,0.675c-1.38,0 -2.46,-0.42 -3.24,-1.26c-0.78,-0.84 -1.17,-2.03 -1.17,-3.57l0,-11.34l2.76,0l0,11.04c0,1.08 0.19,1.845 0.57,2.295c0.38,0.45 1,0.675 1.86,0.675c1.54,0 2.86,-0.91 3.96,-2.73l0,-11.28l2.76,0l0,15.81Z" style="fill:#0e5095;fill-rule:nonzero;"/><path d="M609.875,179.865c0.56,0 1.08,0.06 1.56,0.18l-0.51,2.7c-0.48,-0.12 -0.94,-0.18 -1.38,-0.18c-0.98,0 -1.77,0.36 -2.37,1.08c-0.6,0.72 -1.07,1.84 -1.41,3.36l0,9.03l-2.76,0l0,-15.81l2.37,0l0.27,3.21c0.42,-1.18 0.99,-2.07 1.71,-2.67c0.72,-0.6 1.56,-0.9 2.52,-0.9Z" style="fill:#0e5095;fill-rule:nonzero;"/><path d="M629.795,179.865c2.02,0 3.5,0.72 4.44,2.16c0.94,1.44 1.41,3.47 1.41,6.09c0,2.48 -0.54,4.48 -1.62,6c-1.08,1.52 -2.61,2.28 -4.59,2.28c-1.76,0 -3.14,-0.6 -4.14,-1.8l0,7.5l-2.76,0.33l0,-22.2l2.37,0l0.21,2.13c0.58,-0.8 1.28,-1.415 2.1,-1.845c0.82,-0.43 1.68,-0.645 2.58,-0.645Zm-1.02,14.28c2.6,0 3.9,-2.01 3.9,-6.03c0,-4.04 -1.19,-6.06 -3.57,-6.06c-0.78,0 -1.49,0.23 -2.13,0.69c-0.64,0.46 -1.2,1.05 -1.68,1.77l0,7.71c0.4,0.62 0.9,1.095 1.5,1.425c0.6,0.33 1.26,0.495 1.98,0.495Z" style="fill:#0e5095;fill-rule:nonzero;"/><path d="M647.225,179.865c0.56,0 1.08,0.06 1.56,0.18l-0.51,2.7c-0.48,-0.12 -0.94,-0.18 -1.38,-0.18c-0.98,0 -1.77,0.36 -2.37,1.08c-0.6,0.72 -1.07,1.84 -1.41,3.36l0,9.03l-2.76,0l0,-15.81l2.37,0l0.27,3.21c0.42,-1.18 0.99,-2.07 1.71,-2.67c0.72,-0.6 1.56,-0.9 2.52,-0.9Z" style="fill:#0e5095;fill-rule:nonzero;"/><path d="M656.975,179.865c2.22,0 3.945,0.74 5.175,2.22c1.23,1.48 1.845,3.49 1.845,6.03c0,1.64 -0.28,3.085 -0.84,4.335c-0.56,1.25 -1.37,2.22 -2.43,2.91c-1.06,0.69 -2.32,1.035 -3.78,1.035c-2.22,0 -3.95,-0.74 -5.19,-2.22c-1.24,-1.48 -1.86,-3.49 -1.86,-6.03c0,-1.64 0.28,-3.085 0.84,-4.335c0.56,-1.25 1.37,-2.22 2.43,-2.91c1.06,-0.69 2.33,-1.035 3.81,-1.035Zm0,2.22c-2.74,0 -4.11,2.02 -4.11,6.06c0,4.02 1.36,6.03 4.08,6.03c2.72,0 4.08,-2.02 4.08,-6.06c0,-4.02 -1.35,-6.03 -4.05,-6.03Z" style="fill:#0e5095;fill-rule:nonzero;"/><path d="M671.255,195.075c0,1.46 -0.18,2.63 -0.54,3.51c-0.36,0.88 -0.885,1.595 -1.575,2.145c-0.69,0.55 -1.655,1.105 -2.895,1.665l-0.81,-2.01c0.78,-0.36 1.38,-0.715 1.8,-1.065c0.42,-0.35 0.735,-0.84 0.945,-1.47c0.21,-0.63 0.315,-1.495 0.315,-2.595l0,-15.03l2.76,0l0,14.85Zm-1.38,-22.44c0.58,0 1.05,0.18 1.41,0.54c0.36,0.36 0.54,0.81 0.54,1.35c0,0.54 -0.18,0.985 -0.54,1.335c-0.36,0.35 -0.83,0.525 -1.41,0.525c-0.56,0 -1.02,-0.175 -1.38,-0.525c-0.36,-0.35 -0.54,-0.795 -0.54,-1.335c0,-0.54 0.18,-0.99 0.54,-1.35c0.36,-0.36 0.82,-0.54 1.38,-0.54Z" style="fill:#0e5095;fill-rule:nonzero;"/><path d="M688.895,187.665c0,0.46 -0.02,0.93 -0.06,1.41l-10.08,0c0.12,1.74 0.56,3.02 1.32,3.84c0.76,0.82 1.74,1.23 2.94,1.23c0.76,0 1.46,-0.11 2.1,-0.33c0.64,-0.22 1.31,-0.57 2.01,-1.05l1.2,1.65c-1.68,1.32 -3.52,1.98 -5.52,1.98c-2.2,0 -3.915,-0.72 -5.145,-2.16c-1.23,-1.44 -1.845,-3.42 -1.845,-5.94c0,-1.64 0.265,-3.095 0.795,-4.365c0.53,-1.27 1.29,-2.265 2.28,-2.985c0.99,-0.72 2.155,-1.08 3.495,-1.08c2.1,0 3.71,0.69 4.83,2.07c1.12,1.38 1.68,3.29 1.68,5.73Zm-2.73,-0.81c0,-1.56 -0.31,-2.75 -0.93,-3.57c-0.62,-0.82 -1.55,-1.23 -2.79,-1.23c-2.26,0 -3.49,1.66 -3.69,4.98l7.41,0l0,-0.18Z" style="fill:#0e5095;fill-rule:nonzero;"/><path d="M699.065,179.865c0.94,0 1.8,0.135 2.58,0.405c0.78,0.27 1.53,0.705 2.25,1.305l-1.32,1.74c-0.56,-0.4 -1.105,-0.695 -1.635,-0.885c-0.53,-0.19 -1.115,-0.285 -1.755,-0.285c-1.28,0 -2.275,0.51 -2.985,1.53c-0.71,1.02 -1.065,2.53 -1.065,4.53c0,2 0.35,3.475 1.05,4.425c0.7,0.95 1.7,1.425 3,1.425c0.62,0 1.19,-0.095 1.71,-0.285c0.52,-0.19 1.1,-0.495 1.74,-0.915l1.26,1.8c-1.44,1.16 -3.05,1.74 -4.83,1.74c-2.14,0 -3.825,-0.72 -5.055,-2.16c-1.23,-1.44 -1.845,-3.43 -1.845,-5.97c0,-1.68 0.28,-3.15 0.84,-4.41c0.56,-1.26 1.355,-2.24 2.385,-2.94c1.03,-0.7 2.255,-1.05 3.675,-1.05Z" style="fill:#0e5095;fill-rule:nonzero;"/><path d="M715.625,195.315c-1.04,0.72 -2.22,1.08 -3.54,1.08c-1.34,0 -2.385,-0.385 -3.135,-1.155c-0.75,-0.77 -1.125,-1.885 -1.125,-3.345l0,-9.54l-2.76,0l0,-2.13l2.76,0l0,-3.57l2.76,-0.33l0,3.9l3.75,0l-0.3,2.13l-3.45,0l0,9.42c0,0.82 0.145,1.415 0.435,1.785c0.29,0.37 0.775,0.555 1.455,0.555c0.62,0 1.32,-0.21 2.1,-0.63l1.05,1.83Z" style="fill:#0e5095;fill-rule:nonzero;"/><path d="M722.765,179.865c1.08,0 2.05,0.15 2.91,0.45c0.86,0.3 1.68,0.75 2.46,1.35l-1.17,1.74c-0.72,-0.46 -1.405,-0.8 -2.055,-1.02c-0.65,-0.22 -1.335,-0.33 -2.055,-0.33c-0.9,0 -1.61,0.185 -2.13,0.555c-0.52,0.37 -0.78,0.875 -0.78,1.515c0,0.64 0.245,1.14 0.735,1.5c0.49,0.36 1.375,0.71 2.655,1.05c1.76,0.44 3.075,1.04 3.945,1.8c0.87,0.76 1.305,1.8 1.305,3.12c0,1.56 -0.605,2.75 -1.815,3.57c-1.21,0.82 -2.685,1.23 -4.425,1.23c-2.4,0 -4.39,-0.69 -5.97,-2.07l1.47,-1.68c1.34,1.02 2.82,1.53 4.44,1.53c1.04,0 1.865,-0.215 2.475,-0.645c0.61,-0.43 0.915,-1.015 0.915,-1.755c0,-0.54 -0.11,-0.975 -0.33,-1.305c-0.22,-0.33 -0.6,-0.62 -1.14,-0.87c-0.54,-0.25 -1.33,-0.515 -2.37,-0.795c-1.68,-0.44 -2.895,-1.03 -3.645,-1.77c-0.75,-0.74 -1.125,-1.68 -1.125,-2.82c0,-0.82 0.245,-1.565 0.735,-2.235c0.49,-0.67 1.17,-1.19 2.04,-1.56c0.87,-0.37 1.845,-0.555 2.925,-0.555Z" style="fill:#0e5095;fill-rule:nonzero;"/></g><path d="M824.756,25.883l6.069,12.138l-12.138,0l6.069,-12.138Z" style="fill:#dfecf9;fill-opacity:0.447059;"/><path d="M797.741,20.525c0.578,0.045 1.091,0.364 1.389,0.858c2.18,4.087 4.551,8.037 6.182,12.38c0.063,0.166 0.099,0.342 0.107,0.519c0.042,0.901 -0.589,1.696 -1.609,1.776c-4.158,0.109 -8.483,0.404 -12.404,-0.007c-0.177,-0.018 -0.35,-0.064 -0.512,-0.136c-0.825,-0.366 -1.254,-1.286 -0.869,-2.234c1.929,-4.125 4.07,-8.146 6.106,-12.219c0.32,-0.599 0.729,-0.96 1.61,-0.937Zm-3.408,12.136l6.637,0l-3.318,-6.637c-1.106,2.212 -2.212,4.424 -3.319,6.637Z" style="fill:#426484;fill-opacity:0.203922;fill-rule:nonzero;"/><circle cx="877.951" cy="65.758" r="6.359" style="fill:#dfecf9;fill-opacity:0.447059;"/><path d="M850.339,60.382c6.159,0.119 10.656,8.934 5.456,13.892c-4.678,4.459 -14.871,0.449 -13.494,-7.257c0.666,-3.723 4.046,-6.66 8.038,-6.635Zm-0.165,3.4c-4,0.077 -6.637,6.955 -1.698,8.975c3.363,1.375 7.942,-2.584 5.883,-6.485c-0.805,-1.525 -2.391,-2.501 -4.185,-2.49Z" style="fill:#426484;fill-opacity:0.203922;fill-rule:nonzero;"/><path d="M864.877,27.175c0,-1.764 -1.433,-3.196 -3.196,-3.196l-6.392,0c-1.764,0 -3.196,1.432 -3.196,3.196l0,6.392c0,1.764 1.432,3.196 3.196,3.196l6.392,0c1.763,0 3.196,-1.432 3.196,-3.196l0,-6.392Z" style="fill:#dfecf9;fill-opacity:0.447059;"/><path d="M904.168,28.415c2.504,0.095 4.672,2.215 4.769,4.769c0.062,4.876 0.588,11.208 -4.769,11.412c-4.876,0.061 -11.208,0.585 -11.412,-4.769c-0.062,-4.885 -0.583,-11.209 4.769,-11.412c2.214,-0.029 4.429,-0.029 6.643,0Zm-6.506,3.398c-2.123,0.027 -1.637,4.508 -1.505,7.966c0.13,2.057 4.556,1.546 7.964,1.416c2.056,-0.131 1.545,-4.556 1.416,-7.964c-0.131,-2.062 -4.516,-1.418 -7.875,-1.418Z" style="fill:#426484;fill-opacity:0.203922;fill-rule:nonzero;"/><path d="M800.425,161.062l11.044,7.887l-10.728,5.68l-0.316,-13.567Z" style="fill:#dfecf9;fill-opacity:0.447059;"/><path d="M798.016,106.609c0.532,-0.23 1.135,-0.188 1.629,0.108c3.84,2.592 7.783,4.974 11.257,8.048c0.8,0.707 0.786,2.073 -0.254,2.732c-3.623,2.041 -7.307,4.326 -10.965,5.798c-0.99,0.399 -2.205,-0.224 -2.33,-1.448c-0.225,-4.548 -0.215,-9.104 -0.321,-13.656c0.002,-0.679 0.197,-1.192 0.984,-1.582Zm2.668,12.32l5.865,-3.106l-6.038,-4.313c0.057,2.473 0.115,4.946 0.173,7.419Z" style="fill:#426484;fill-opacity:0.203922;fill-rule:nonzero;"/><path d="M827.395,140.96c3.102,-1.643 6.954,-0.458 8.596,2.644c1.643,3.102 0.458,6.953 -2.644,8.596c-3.101,1.642 -6.953,0.458 -8.596,-2.644c-1.642,-3.102 -0.457,-6.954 2.644,-8.596Z" style="fill:#dfecf9;fill-opacity:0.447059;"/><path d="M853.946,167.245c5.453,-2.757 13.532,2.837 11.352,9.631c-1.98,6.175 -12.837,7.515 -15.319,0.089c-1.2,-3.589 0.467,-7.896 3.967,-9.72Zm1.446,3.081c-3.521,1.951 -2.514,9.244 2.698,8.726c3.599,-0.357 5.795,-5.946 2.212,-8.451c-1.43,-1 -3.296,-1.143 -4.91,-0.275Z" style="fill:#426484;fill-opacity:0.203922;fill-rule:nonzero;"/><path d="M938.471,49.811c0,-1.764 -1.432,-3.196 -3.196,-3.196l-6.392,0c-1.764,0 -3.196,1.432 -3.196,3.196l0,6.392c0,1.764 1.432,3.196 3.196,3.196l6.392,0c1.764,0 3.196,-1.432 3.196,-3.196l0,-6.392Z" style="fill:#dfecf9;fill-opacity:0.447059;"/><path d="M951.479,152.961c2.503,0.095 4.672,2.216 4.769,4.769c0.061,4.877 0.588,11.208 -4.769,11.412c-4.889,0.062 -11.209,0.584 -11.412,-4.769c-0.063,-4.885 -0.583,-11.209 4.769,-11.412c2.214,-0.029 4.429,-0.029 6.643,0Zm-6.507,3.398c-2.122,0.028 -1.636,4.509 -1.505,7.967c0.131,2.056 4.557,1.545 7.964,1.415c2.056,-0.13 1.546,-4.556 1.416,-7.964c-0.131,-2.062 -4.516,-1.418 -7.875,-1.418Z" style="fill:#426484;fill-opacity:0.203922;fill-rule:nonzero;"/><path d="M927.164,112.375l13.312,2.639l-7.436,9.594l-5.876,-12.233Z" style="fill:#dfecf9;fill-opacity:0.447059;"/><path d="M804.022,68.463c0.494,-0.2 0.677,-0.167 1.013,-0.11l13.312,2.639c2.357,0.535 1.577,1.939 1.013,2.709l-7.436,9.594c-0.492,0.6 -0.71,0.565 -1.012,0.625c-0.747,0.149 -1.46,-0.145 -1.864,-0.931l-5.876,-12.233c-0.386,-0.864 -0.201,-1.797 0.85,-2.293Zm6.9,10.575l4.066,-5.246l-7.279,-1.443c1.071,2.23 2.142,4.459 3.213,6.689Z" style="fill:#426484;fill-opacity:0.203922;fill-rule:nonzero;"/><path d="M848.631,108.924c2.15,-2.774 6.148,-3.28 8.922,-1.13c2.774,2.15 3.281,6.148 1.13,8.922c-2.15,2.774 -6.148,3.28 -8.922,1.13c-2.774,-2.15 -3.28,-6.148 -1.13,-8.922Z" style="fill:#dfecf9;fill-opacity:0.447059;"/><path d="M896.874,82.576c5.419,-2.741 13.295,2.7 11.452,9.331c-1.683,6.053 -11.938,8.146 -15.102,1.171c-1.643,-3.624 -0.196,-8.322 3.391,-10.363c0.086,-0.048 0.172,-0.094 0.259,-0.139Zm1.453,3.077c-3.531,1.952 -2.659,9.339 2.764,8.718c3.282,-0.377 5.402,-4.943 2.971,-7.704c-1.391,-1.581 -3.818,-2.043 -5.735,-1.014Z" style="fill:#426484;fill-opacity:0.203922;fill-rule:nonzero;"/><path d="M894.569,132.817c-1.395,-1.08 -3.404,-0.826 -4.484,0.568l-3.916,5.053c-1.081,1.394 -0.826,3.403 0.568,4.484l5.052,3.915c1.394,1.081 3.404,0.826 4.484,-0.568l3.916,-5.052c1.081,-1.394 0.826,-3.403 -0.568,-4.484l-5.052,-3.916Z" style="fill:#dfecf9;fill-opacity:0.447059;"/><path d="M899.372,165.026c3.448,-1.666 7.507,1.793 10.617,4.753c1.694,1.611 1.989,4.458 0.568,6.443c-2.944,3.899 -6.405,9.218 -10.761,6.099c-3.925,-2.962 -9.319,-6.26 -6.098,-10.761c1.98,-2.623 3.67,-5.505 5.674,-6.534Zm1.453,3.077c-0.925,0.534 -2.878,3.362 -4.41,5.503c-1.158,1.706 2.654,4.013 5.427,5.998c1.704,1.156 4.013,-2.655 5.998,-5.428c1.157,-1.705 -2.655,-4.012 -5.428,-5.997c-0.475,-0.323 -1.03,-0.379 -1.587,-0.076Z" style="fill:#426484;fill-opacity:0.203922;fill-rule:nonzero;"/><path d="M786.483,185.595c2.4,0.716 3.972,3.309 3.43,5.807c-1.155,4.738 -2.223,11.001 -7.462,9.864c-4.749,-1.158 -11,-2.227 -9.864,-7.462c1.156,-4.746 2.228,-11 7.462,-9.864c2.151,0.524 4.296,1.076 6.434,1.655Zm-7.149,1.67c-2.062,-0.502 -2.707,3.959 -3.442,7.341c-0.386,2.024 4.028,2.631 7.361,3.354c2.023,0.386 2.631,-4.027 3.355,-7.36c0.387,-2.029 -4.021,-2.498 -7.274,-3.335Z" style="fill:#426484;fill-opacity:0.203922;fill-rule:nonzero;"/><path d="M773.045,140.231l12.235,5.872l-9.592,7.439l-2.643,-13.311Z" style="fill:#dfecf9;fill-opacity:0.447059;"/><path d="M168.172,194.41l-6.069,-12.138l12.138,0l-6.069,12.138Z" style="fill:#dfecf9;fill-opacity:0.447059;"/><path d="M195.187,199.768c-0.578,-0.045 -1.091,-0.364 -1.389,-0.858c-2.18,-4.087 -4.551,-8.037 -6.182,-12.38c-0.063,-0.166 -0.099,-0.342 -0.107,-0.519c-0.042,-0.901 0.589,-1.696 1.609,-1.776c4.158,-0.109 8.483,-0.404 12.404,0.007c0.177,0.018 0.35,0.064 0.512,0.136c0.825,0.366 1.254,1.286 0.869,2.234c-1.929,4.125 -4.07,8.146 -6.106,12.219c-0.32,0.599 -0.729,0.96 -1.61,0.937Zm3.408,-12.136l-6.637,0l3.318,6.637c1.106,-2.212 2.212,-4.424 3.319,-6.637Z" style="fill:#426484;fill-opacity:0.203922;fill-rule:nonzero;"/><circle cx="114.977" cy="154.535" r="6.359" style="fill:#dfecf9;fill-opacity:0.447059;"/><path d="M142.589,159.911c-6.159,-0.119 -10.656,-8.934 -5.456,-13.892c4.678,-4.459 14.871,-0.449 13.494,7.257c-0.666,3.723 -4.046,6.66 -8.038,6.635Zm0.165,-3.4c4,-0.077 6.637,-6.955 1.698,-8.975c-3.363,-1.375 -7.942,2.584 -5.883,6.485c0.805,1.525 2.391,2.501 4.185,2.49Z" style="fill:#426484;fill-opacity:0.203922;fill-rule:nonzero;"/><path d="M128.051,193.118c0,1.764 1.433,3.196 3.196,3.196l6.392,0c1.764,0 3.196,-1.432 3.196,-3.196l0,-6.392c0,-1.764 -1.432,-3.196 -3.196,-3.196l-6.392,0c-1.763,0 -3.196,1.432 -3.196,3.196l0,6.392Z" style="fill:#dfecf9;fill-opacity:0.447059;"/><path d="M88.76,191.878c-2.504,-0.095 -4.672,-2.215 -4.769,-4.769c-0.062,-4.876 -0.588,-11.208 4.769,-11.412c4.876,-0.061 11.208,-0.585 11.412,4.769c0.062,4.885 0.583,11.209 -4.769,11.412c-2.214,0.029 -4.429,0.029 -6.643,0Zm6.506,-3.398c2.123,-0.027 1.637,-4.508 1.505,-7.966c-0.13,-2.057 -4.556,-1.546 -7.964,-1.416c-2.056,0.131 -1.545,4.556 -1.416,7.964c0.131,2.062 4.516,1.418 7.875,1.418Z" style="fill:#426484;fill-opacity:0.203922;fill-rule:nonzero;"/><path d="M192.503,59.231l-11.044,-7.887l10.728,-5.68l0.316,13.567Z" style="fill:#dfecf9;fill-opacity:0.447059;"/><path d="M194.912,113.684c-0.532,0.23 -1.135,0.188 -1.629,-0.108c-3.84,-2.592 -7.783,-4.974 -11.257,-8.048c-0.8,-0.707 -0.786,-2.073 0.254,-2.732c3.623,-2.041 7.307,-4.326 10.965,-5.798c0.99,-0.399 2.205,0.224 2.33,1.448c0.225,4.548 0.215,9.104 0.321,13.656c-0.002,0.679 -0.197,1.192 -0.984,1.582Zm-2.668,-12.32l-5.865,3.106l6.038,4.313c-0.057,-2.473 -0.115,-4.946 -0.173,-7.419Z" style="fill:#426484;fill-opacity:0.203922;fill-rule:nonzero;"/><path d="M165.533,79.333c-3.102,1.643 -6.954,0.458 -8.596,-2.644c-1.643,-3.102 -0.458,-6.953 2.644,-8.596c3.101,-1.642 6.953,-0.458 8.596,2.644c1.642,3.102 0.457,6.954 -2.644,8.596Z" style="fill:#dfecf9;fill-opacity:0.447059;"/><path d="M138.982,53.048c-5.453,2.757 -13.532,-2.837 -11.352,-9.631c1.98,-6.175 12.837,-7.515 15.319,-0.089c1.2,3.589 -0.467,7.896 -3.967,9.72Zm-1.446,-3.081c3.521,-1.951 2.514,-9.244 -2.698,-8.726c-3.599,0.357 -5.795,5.946 -2.212,8.451c1.43,1 3.296,1.143 4.91,0.275Z" style="fill:#426484;fill-opacity:0.203922;fill-rule:nonzero;"/><path d="M54.457,170.482c0,1.764 1.432,3.196 3.196,3.196l6.392,0c1.764,0 3.196,-1.432 3.196,-3.196l0,-6.392c0,-1.764 -1.432,-3.196 -3.196,-3.196l-6.392,0c-1.764,0 -3.196,1.432 -3.196,3.196l0,6.392Z" style="fill:#dfecf9;fill-opacity:0.447059;"/><path d="M41.449,67.332c-2.503,-0.095 -4.672,-2.216 -4.769,-4.769c-0.061,-4.877 -0.588,-11.208 4.769,-11.412c4.889,-0.062 11.209,-0.584 11.412,4.769c0.063,4.885 0.583,11.209 -4.769,11.412c-2.214,0.029 -4.429,0.029 -6.643,0Zm6.507,-3.398c2.122,-0.028 1.636,-4.509 1.505,-7.967c-0.131,-2.056 -4.557,-1.545 -7.964,-1.415c-2.056,0.13 -1.546,4.556 -1.416,7.964c0.131,2.062 4.516,1.418 7.875,1.418Z" style="fill:#426484;fill-opacity:0.203922;fill-rule:nonzero;"/><path d="M65.764,107.918l-13.312,-2.639l7.436,-9.594l5.876,12.233Z" style="fill:#dfecf9;fill-opacity:0.447059;"/><path d="M188.906,151.83c-0.494,0.2 -0.677,0.167 -1.013,0.11l-13.312,-2.639c-2.357,-0.535 -1.577,-1.939 -1.013,-2.709l7.436,-9.594c0.492,-0.6 0.71,-0.565 1.012,-0.625c0.747,-0.149 1.46,0.145 1.864,0.931l5.876,12.233c0.386,0.864 0.201,1.797 -0.85,2.293Zm-6.9,-10.575l-4.066,5.246l7.279,1.443c-1.071,-2.23 -2.142,-4.459 -3.213,-6.689Z" style="fill:#426484;fill-opacity:0.203922;fill-rule:nonzero;"/><path d="M144.297,111.369c-2.15,2.774 -6.148,3.28 -8.922,1.13c-2.774,-2.15 -3.281,-6.148 -1.13,-8.922c2.15,-2.774 6.148,-3.28 8.922,-1.13c2.774,2.15 3.28,6.148 1.13,8.922Z" style="fill:#dfecf9;fill-opacity:0.447059;"/><path d="M96.054,137.717c-5.419,2.741 -13.295,-2.7 -11.452,-9.331c1.683,-6.053 11.938,-8.146 15.102,-1.171c1.643,3.624 0.196,8.322 -3.391,10.363c-0.086,0.048 -0.172,0.094 -0.259,0.139Zm-1.453,-3.077c3.531,-1.952 2.659,-9.339 -2.764,-8.718c-3.282,0.377 -5.402,4.943 -2.971,7.704c1.391,1.581 3.818,2.043 5.735,1.014Z" style="fill:#426484;fill-opacity:0.203922;fill-rule:nonzero;"/><path d="M98.359,87.476c1.395,1.08 3.404,0.826 4.484,-0.568l3.916,-5.053c1.081,-1.394 0.826,-3.403 -0.568,-4.484l-5.052,-3.915c-1.394,-1.081 -3.404,-0.826 -4.484,0.568l-3.916,5.052c-1.081,1.394 -0.826,3.403 0.568,4.484l5.052,3.916Z" style="fill:#dfecf9;fill-opacity:0.447059;"/><path d="M93.556,55.267c-3.448,1.666 -7.507,-1.793 -10.617,-4.753c-1.694,-1.611 -1.989,-4.458 -0.568,-6.443c2.944,-3.899 6.405,-9.218 10.761,-6.099c3.925,2.962 9.319,6.26 6.098,10.761c-1.98,2.623 -3.67,5.505 -5.674,6.534Zm-1.453,-3.077c0.925,-0.534 2.878,-3.362 4.41,-5.503c1.158,-1.706 -2.654,-4.013 -5.427,-5.998c-1.704,-1.156 -4.013,2.655 -5.998,5.428c-1.157,1.705 2.655,4.012 5.428,5.997c0.475,0.323 1.03,0.379 1.587,0.076Z" style="fill:#426484;fill-opacity:0.203922;fill-rule:nonzero;"/><path d="M206.445,34.698c-2.4,-0.716 -3.972,-3.309 -3.43,-5.807c1.155,-4.738 2.223,-11.001 7.462,-9.864c4.749,1.158 11,2.227 9.864,7.462c-1.156,4.746 -2.228,11 -7.462,9.864c-2.151,-0.524 -4.296,-1.076 -6.434,-1.655Zm7.149,-1.67c2.062,0.502 2.707,-3.959 3.442,-7.341c0.386,-2.024 -4.028,-2.631 -7.361,-3.354c-2.023,-0.386 -2.631,4.027 -3.355,7.36c-0.387,2.029 4.021,2.498 7.274,3.335Z" style="fill:#426484;fill-opacity:0.203922;fill-rule:nonzero;"/><path d="M219.883,80.062l-12.235,-5.872l9.592,-7.439l2.643,13.311Z" style="fill:#dfecf9;fill-opacity:0.447059;"/></svg>